<svg xmlns="http://www.w3.org/2000/svg" width="475.769" height="74.99" viewBox="0 0 475.769 74.99">
  <g id="Grupo_16760" data-name="Grupo 16760" style="mix-blend-mode: normal;isolation: isolate">
    <g id="Grupo_16757" data-name="Grupo 16757" transform="translate(0 0)">
      <g id="Grupo_16756" data-name="Grupo 16756">
        <path id="Caminho_105245" data-name="Caminho 105245" d="M272.6,390.766l19.343.171.231-13.294,18.936.223-.057,4.795-9.587-.113L299.246,391l30.887.273.381-32.358-62.324-.735-5.022,19.12,9.589.113Z" transform="translate(44.578 -354.621)" fill="#fff"/>
        <path id="Caminho_105246" data-name="Caminho 105246" d="M372.095,391.544l.38-32.145-57.529-.678-.283,23.971-4.795-.057-2.19,8.339Zm-38.2-13.42,19.178.226-.057,4.795-19.178-.226Z" transform="translate(74.529 -354.257)" fill="#fff"/>
        <path id="Caminho_105247" data-name="Caminho 105247" d="M145.8,390l.11-9.293-38.355-.452.057-4.795,38.355.452.226-19.177-57.53-.678-.283,23.971-4.795-.057L81.1,389.424Z" transform="translate(-77.932 -356.053)" fill="#fff"/>
        <path id="Caminho_105248" data-name="Caminho 105248" d="M188.769,390.289l.39-33.051-57.529-.677-.283,23.971-4.795-.057-2.427,9.244Zm-38.191-14.327,19.178.226-.057,4.794-19.178-.226Z" transform="translate(-48.983 -355.712)" fill="#fff"/>
        <path id="Caminho_105249" data-name="Caminho 105249" d="M175.155,390.1l19.177.169.162-13.776,9.589.113-.162,13.748,19.177.169.161-13.691,9.587.113-.161,13.663,19.179.169.386-32.783-81.5-.961-5.019,19.12,9.587.113Z" transform="translate(-20.987 -355.394)" fill="#fff"/>
        <path id="Caminho_105250" data-name="Caminho 105250" d="M229.609,390.471l19.177.169.385-32.684-23.969-.282-5.022,19.12,9.589.113Z" transform="translate(15.652 -354.962)" fill="#fff"/>
        <path id="Caminho_105251" data-name="Caminho 105251" d="M267.922,390.775l.384-32.571-19.178-.226-.385,32.627Z" transform="translate(34.872 -354.758)" fill="#fff"/>
        <path id="Caminho_105252" data-name="Caminho 105252" d="M371.094,391.39l.378-32.061L352.239,363.9l-.322,27.323Z" transform="translate(104.297 -353.848)" fill="#fff"/>
        <path id="Caminho_105253" data-name="Caminho 105253" d="M205.311,380.616v32.94l19.18-4.795v-28.1Z" transform="translate(5.647 -339.525)" fill="#fff"/>
        <path id="Caminho_105254" data-name="Caminho 105254" d="M124.527,380.407l-2.329,9.316h9.59V413.7l19.176-4.795V389.723h19.179V413.7l19.178-4.795V380.572Z" transform="translate(-50.28 -339.665)" fill="#fff"/>
        <path id="Caminho_105255" data-name="Caminho 105255" d="M170.92,380.528v33.087L190.1,408.82V380.577Z" transform="translate(-17.495 -339.584)" fill="#fff"/>
        <path id="Caminho_105256" data-name="Caminho 105256" d="M188.116,380.572v33.013l19.178-4.795v-28.17Z" transform="translate(-5.924 -339.555)" fill="#fff"/>
        <path id="Caminho_105257" data-name="Caminho 105257" d="M81.583,380.3l-2.375,9.5h47.945v4.795H88.8V413.77h57.534V380.463Z" transform="translate(-79.208 -339.739)" fill="#fff"/>
        <path id="Caminho_105258" data-name="Caminho 105258" d="M263.729,380.765v13.579H244.552V380.716l-19.178-.049v32.854h57.535V380.814Z" transform="translate(19.147 -339.491)" fill="#fff"/>
        <path id="Caminho_105259" data-name="Caminho 105259" d="M351.478,380.988V413.3l19.178-4.795V381.037Z" transform="translate(104.002 -339.274)" fill="#fff"/>
        <path id="Caminho_105260" data-name="Caminho 105260" d="M268.364,380.777v32.671l19.178-4.795.155-27.827Z" transform="translate(48.075 -339.417)" fill="#fff"/>
        <path id="Caminho_105261" data-name="Caminho 105261" d="M307.755,380.875l-2.134,8.534h9.59v23.973l19.176-4.795V389.408h19.18v23.973l19.178-4.795V381.041Z" transform="translate(73.146 -339.351)" fill="#fff"/>
        <path id="Caminho_105262" data-name="Caminho 105262" d="M316.256,380.9l-31.4-.08-2.158,8.632h11.411l-4.7,5.8,14.432,19.13,12.419-15.39-7.191-9.542h7.191Z" transform="translate(57.718 -339.39)" fill="#fff"/>
      </g>
    </g>
  </g>
</svg>
