<svg xmlns="http://www.w3.org/2000/svg" xmlns:xlink="http://www.w3.org/1999/xlink" width="28.651" height="22.194" viewBox="0 0 28.651 22.194"><defs><style>.a{fill:#fff;}.b{clip-path:url(#a);}</style><clipPath id="a"><rect class="a" width="28.651" height="22.194"/></clipPath></defs><g class="b"><g transform="translate(0 0.166)"><path class="a" d="M24.254,2.222A23.626,23.626,0,0,0,18.422.413a.09.09,0,0,0-.094.044A16.42,16.42,0,0,0,17.6,1.949a21.813,21.813,0,0,0-6.55,0A15.048,15.048,0,0,0,10.315.457a.093.093,0,0,0-.094-.044A23.572,23.572,0,0,0,4.389,2.222a.082.082,0,0,0-.038.033A24.181,24.181,0,0,0,.118,18.562a.1.1,0,0,0,.038.067A23.768,23.768,0,0,0,7.31,22.246a.093.093,0,0,0,.1-.033,17.018,17.018,0,0,0,1.464-2.381.091.091,0,0,0-.05-.126,15.686,15.686,0,0,1-2.235-1.065.092.092,0,0,1-.009-.153c.15-.113.3-.23.444-.348a.089.089,0,0,1,.092-.013,16.944,16.944,0,0,0,14.4,0,.088.088,0,0,1,.094.011c.144.118.294.236.445.349a.092.092,0,0,1-.008.153,14.673,14.673,0,0,1-2.236,1.064.091.091,0,0,0-.048.127,19.035,19.035,0,0,0,1.462,2.38.091.091,0,0,0,.1.034A23.694,23.694,0,0,0,28.49,18.63a.092.092,0,0,0,.037-.066A24.021,24.021,0,0,0,24.291,2.256.073.073,0,0,0,24.254,2.222ZM9.574,15.308A2.754,2.754,0,0,1,7,12.42,2.739,2.739,0,0,1,9.574,9.532a2.724,2.724,0,0,1,2.575,2.888A2.739,2.739,0,0,1,9.574,15.308Zm9.52,0a2.754,2.754,0,0,1-2.575-2.888,2.739,2.739,0,0,1,2.575-2.888,2.724,2.724,0,0,1,2.575,2.888A2.731,2.731,0,0,1,19.094,15.308Z" transform="translate(0 -0.412)"/></g></g></svg>