<svg xmlns="http://www.w3.org/2000/svg" width="40" height="40" viewBox="0 0 40 40">
  <g id="Grupo_16888" data-name="Grupo 16888" transform="translate(-319 -64)">
    <g id="Grupo_4240" data-name="Grupo 4240" transform="translate(-1009)">
      <g id="Grupo_4237" data-name="Grupo 4237" transform="translate(1328 64)">
        <rect id="Retângulo_1243" data-name="Retângulo 1243" width="40" height="40" fill="#fff"/>
      </g>
    </g>
    <path id="Caminho_81967" data-name="Caminho 81967" d="M23.1,6.613a.937.937,0,0,0,.937-.937V4.691A4.7,4.7,0,0,0,19.346,0S4.651,0,4.615.006A4.786,4.786,0,0,0,1.333,1.478,4.621,4.621,0,0,0,.04,4.853c0,.024,0,13.522,0,13.522A5.635,5.635,0,0,0,5.666,24h13.68a4.7,4.7,0,0,0,4.691-4.691V12.195A4.7,4.7,0,0,0,19.347,7.5H4.725A2.807,2.807,0,0,1,1.916,4.825a2.763,2.763,0,0,1,.774-2.053,2.9,2.9,0,0,1,2.089-.894l14.568,0a2.819,2.819,0,0,1,2.816,2.816v.984a.938.938,0,0,0,.938.937ZM4.725,9.379H19.346a2.819,2.819,0,0,1,2.816,2.816v7.118a2.819,2.819,0,0,1-2.816,2.816H5.666a3.758,3.758,0,0,1-3.754-3.754V8.445a4.675,4.675,0,0,0,2.812.934Zm15.563,6.375a1.172,1.172,0,1,1-1.172-1.172A1.172,1.172,0,0,1,20.288,15.754Zm0-11.062a.937.937,0,0,0-.937-.937H4.725a.938.938,0,0,0,0,1.875H19.35A.938.938,0,0,0,20.288,4.691Z" transform="translate(326.963 72)" fill="#5887ff"/>
  </g>
</svg>
