<svg xmlns="http://www.w3.org/2000/svg" width="28.651" height="28.651" viewBox="0 0 28.651 28.651"><defs><style>.a{fill:#fff;}</style></defs><path class="a" d="M18.4,6.66c3.825,0,4.278.015,5.789.083a7.929,7.929,0,0,1,2.66.493,4.744,4.744,0,0,1,2.719,2.719,7.929,7.929,0,0,1,.493,2.66c.069,1.511.083,1.964.083,5.789s-.015,4.278-.083,5.789a7.929,7.929,0,0,1-.493,2.66,4.744,4.744,0,0,1-2.719,2.719,7.929,7.929,0,0,1-2.66.493c-1.51.069-1.963.083-5.789.083s-4.278-.015-5.789-.083a7.929,7.929,0,0,1-2.66-.493,4.744,4.744,0,0,1-2.719-2.719,7.929,7.929,0,0,1-.493-2.66C6.675,22.683,6.66,22.23,6.66,18.4s.015-4.278.083-5.789a7.929,7.929,0,0,1,.493-2.66A4.744,4.744,0,0,1,9.956,7.237a7.929,7.929,0,0,1,2.66-.493c1.511-.069,1.964-.083,5.789-.083m0-2.581c-3.891,0-4.378.016-5.906.086a10.515,10.515,0,0,0-3.477.666,7.325,7.325,0,0,0-4.19,4.19A10.515,10.515,0,0,0,4.165,12.5c-.07,1.528-.086,2.016-.086,5.906s.016,4.378.086,5.906a10.515,10.515,0,0,0,.666,3.477,7.325,7.325,0,0,0,4.19,4.19,10.515,10.515,0,0,0,3.477.666c1.528.07,2.016.086,5.906.086s4.378-.016,5.906-.086a10.515,10.515,0,0,0,3.477-.666,7.325,7.325,0,0,0,4.19-4.19,10.515,10.515,0,0,0,.666-3.477c.07-1.528.086-2.016.086-5.906s-.016-4.378-.086-5.906a10.515,10.515,0,0,0-.666-3.477,7.325,7.325,0,0,0-4.19-4.19,10.515,10.515,0,0,0-3.477-.666C22.783,4.1,22.3,4.079,18.4,4.079Z" transform="translate(-4.079 -4.079)"/><path class="a" d="M133.991,126.635a7.356,7.356,0,1,0,7.356,7.356A7.356,7.356,0,0,0,133.991,126.635Zm0,12.131a4.775,4.775,0,1,1,4.775-4.775A4.775,4.775,0,0,1,133.991,138.766Z" transform="translate(-119.666 -119.666)"/><circle class="a" cx="1.719" cy="1.719" r="1.719" transform="translate(20.253 4.959)"/></svg>