<svg xmlns="http://www.w3.org/2000/svg" width="90" height="58.196" viewBox="0 0 90 58.196"><defs><style>.a{fill:#5887ff;}.b{fill:#fff;}</style></defs><g transform="translate(-589.122 -306.728)"><path class="a" d="M669.531,340.555l-.13-9.984,9.72-17.095-15.84-5.84-3.018,5.91-4.569-6.818-4.9,3.341-.006-.168-18.366-2.09.221,1.608L629,309.289l-.023-.035,0-.1h-.065l-2.025.035-.448.008-4.734-.168.005.249-10.046.172-.012.576-22.466-1.348-.071,19.055,6.257-.424-.339,12.285-5.8-.141.7,22.414,2.349.519,2.545.562,6.993,1.545.546.43,1.8-1.348,5.212-.2.016.339,10.3-.728.035.728,10.048-.71.068,1.313,9.3-1.466v.343h8.582l.2.47,3.066-.47h1.912l-.016-.29,3.138-.481a12.9,12.9,0,0,0,4.939.957c6.266,0,11.174-4.1,11.174-9.345a8.641,8.641,0,0,0-2.039-5.785l2.509-6.437Zm-17.961-9.626,0,.14-.006-.153Z"/><g transform="translate(593.917 313.251)"><path class="b" d="M604.542,347.218l.5-18.081-6.381.432.033-8.874,19.942,1.2-.166,6.315-7.378.5.665,17.648Z" transform="translate(-598.66 -320.197)"/><path class="b" d="M642.231,347.282l.532-25.924,7.744-.133-.6,25.758Z" transform="translate(-620.328 -320.46)"/><path class="b" d="M680.039,346.226l-8.741-13.56,1.961,13.295-9.073,1.03-.532-26.555,5.617.2,7.278,9.938-1.5-10.868,8.176.93.931,25.193Z" transform="translate(-630.982 -319.704)"/><path class="b" d="M713.947,345.993l.332-10.037-8.774-11.367,6.78-4.62,6.414,9.572,4.786-9.373,6.581,2.426-7.578,13.328.133,10.236Z" transform="translate(-651.795 -319.836)"/><path class="b" d="M607.879,395.806l-4.72-4.869-.522,4.962-3.041-.672-.429-13.655,4.608.112-.522,5.541,3.806-5.3,4.272.224-4.962,6.4,4.831,4.776Z" transform="translate(-598.912 -350.472)"/><path class="b" d="M625.147,395.6l.3-14.551,4.346-.074-.336,14.457Z" transform="translate(-611.832 -350.177)"/><path class="b" d="M637.825,395.4l-.69-14.532,4.253-.149-.112,10.2,5.149-.653.112,4.515Z" transform="translate(-617.794 -350.048)"/><path class="b" d="M658.386,395.4l-.69-14.532,4.253-.149-.112,10.2,5.149-.653.112,4.515Z" transform="translate(-628.019 -350.048)"/><path class="b" d="M678.39,395.4l-.727-14.14,9.01-.877.075,4.515-5.634.429.074,1.66,4.608-.41.168,2.611-4.589.485.075,1.865,5.316-.653.261,3.152Z" transform="translate(-637.949 -349.881)"/><path class="b" d="M705.126,395.176l-2.145-5.056-1.119.149.261,4.943h-3.936l.037-14.084a16.191,16.191,0,0,1,3.768-.411c4.7,0,7.033,2.276,7.033,4.608a4.634,4.634,0,0,1-2.966,4.03l2.966,5.223Zm-3.377-7.5c1.9-.019,2.873-.97,2.873-1.9,0-.84-.8-1.66-2.425-1.66a3.634,3.634,0,0,0-.634.037Z" transform="translate(-648.156 -350.048)"/><path class="b" d="M722.989,390.757a4.576,4.576,0,0,0,2.966,1.212c1.418,0,2.537-.672,2.537-1.7,0-1.791-7.088-.205-7.088-5.13,0-3.4,4.141-4.72,7.051-4.72a9.683,9.683,0,0,1,3.637.69l-1.287,3.3a5.285,5.285,0,0,0-2.649-.709c-1.418,0-2.574.6-2.574,1.473,0,1.884,7.425-.074,7.425,5.5,0,2.7-3.1,4.57-6.4,4.57a7.545,7.545,0,0,1-5.522-2.238Z" transform="translate(-659.544 -349.9)"/></g></g></svg>