<svg xmlns="http://www.w3.org/2000/svg" width="129.228" height="78.3" viewBox="0 0 129.228 78.3"><defs><style>.a{fill:#fff;}</style></defs><g transform="translate(-336.758 -494.512)"><path class="a" d="M487.145,591.086l-.539,6.558c2.031.026,3.644-.917,4.1-2.177a3.322,3.322,0,0,0-.858-3.431A3.565,3.565,0,0,0,487.145,591.086Z" transform="translate(-68.547 -44.173)"/><path class="a" d="M447.933,541.174a15.023,15.023,0,0,0-1.722-1.336l19.775-42.581-24.071-.983-.208-1.762-12.847,2.57-19.992-1.418,0,.187H387.38V496l-16.228-.224,0,.273-34.4-.291,1.041,20.607,7.543,1.4-1.616,19.42-3.865-.61-.2,28.36,15.418,7.877.21-3.082,2.185,2.239,4.859-4.743,6.128.789v.2l1.621.005,5.742.739.007-.722,7.205.01c3.967,0,7.935.01,9.484.015l4.626.016.042-.431,3.2.592,13.152-.267.014-.28,5.081,2.009.093.262.294-.109,2.689,1.062.175-2.127,5.659-2.1A18.653,18.653,0,0,0,436.012,569c4.634,0,8.836-1.914,11.125-5.506a12.332,12.332,0,0,0-.058-13.033l4.006-6.446Zm-55.508-40.242H406.3q4.082,7.644,8.167,15.289l-.377-15.1,10.182.722q-.391,18.536-.78,37.073l-7.805.416q-5.707-9.4-11.414-18.791l-1.991,19.264-10.109-3.278Zm16.267,36.682-1.076-.007.156-1.509ZM387.786,501.09l-.664,8.125-10.709-1.184q-.054-3.549-.106-7.1Zm-11.623,10.085h11.268l-.25,28.306-13.242-1.7Zm-18.606,53.608-6.57-6.729-.458,6.729-5.768-2.947.138-19.321,7.071,1.117-.473,6.933,4.605-5.756,6.019,1.365-6.929,7.3,7.452,6.341Zm13.233-1.592-7.071-.91,1.188-14.2h6.016Zm-.031-16.161-5.719-.632q-.028-1.895-.056-3.791l6.129.085Zm-3.692-9.476.136-15.514,2.9.576-1.246,14.911h-.37v.048Zm3.84-19.96-8.731-1.73-.214,24.52-13.243-1.934,2.068-24.845-8.116-1.5-.566-11.215,30.57.258Zm21.626,45.591c-3.1-.01-15.887-.021-18.989-.031l.023-20.547h7.546s-1.112,15.607-1.15,15.815c1.117.005,11.917.009,13.033.014Q392.767,560.811,392.534,563.184Zm.042-5.848-9.3-.031v-14.7h7.546s-1.09,9.76-1.127,9.969l3.348.014Q392.808,554.963,392.576,557.337Zm15.361-5.223-.4,4.067-6.173-.682-.243,3.357,7.732.64-.174,3.7-7.884.159-5.773-1.069V542.607l14.583.094-.9,7.072-6.81-1.59-.279,3.858Zm19.805-.987a8.735,8.735,0,0,1-3.218,5.08l2.726,5.369-5.466,2.031-1.948-5.472a10.816,10.816,0,0,1-2.157-.044l-.475,5.784-5.65-2.234q.012-9.493.025-18.987l7.509-.134c.5-.049,4.359-.371,6.806,2.286a7.824,7.824,0,0,1,1.628,2.864A7.557,7.557,0,0,1,427.743,551.127Zm10.93-.673a9.911,9.911,0,0,1,4.058,2.667,7.2,7.2,0,0,1,.122,7.647c-2.065,3.239-7.81,4.42-13.283,1.457q.929-1.943,1.856-3.885c.112.1,2.846,2.382,4.754,1.334.248-.136.688-.379.771-.8.3-1.523-4.684-2.262-6.723-5.693a8.037,8.037,0,0,1,.58-8.7c2.953-3.594,8.835-2.568,11.953-.812a9.839,9.839,0,0,1,1.768,1.275q-1.429,2.3-2.86,4.6c-1.128-.772-6-4.329-6.7-1.676C434.433,549.882,437.478,550.021,438.672,550.454Zm2.1-10.972h-10.4l2.313-13.426L427.171,502.6l10.134-2.026q.833,7.08,1.669,14.16l4.624-13.306,14.571.595Q449.472,520.751,440.775,539.482Z"/></g></svg>