<svg xmlns="http://www.w3.org/2000/svg" width="28.651" height="23.285" viewBox="0 0 28.651 23.285"><defs><style>.a{fill:#172a3a;}</style></defs><path class="a" d="M1823.132,63.15a11.789,11.789,0,0,1-3.376.925,5.9,5.9,0,0,0,2.584-3.253,11.73,11.73,0,0,1-3.733,1.426,5.881,5.881,0,0,0-10.168,4.024,5.982,5.982,0,0,0,.152,1.339,16.688,16.688,0,0,1-12.117-6.142,5.885,5.885,0,0,0,1.82,7.848,5.871,5.871,0,0,1-2.663-.735c0,.024,0,.049,0,.072a5.883,5.883,0,0,0,4.716,5.765,5.938,5.938,0,0,1-1.548.205,5.84,5.84,0,0,1-1.108-.1,5.884,5.884,0,0,0,5.491,4.081,11.864,11.864,0,0,1-8.7,2.434,16.627,16.627,0,0,0,9.01,2.641c10.813,0,16.725-8.957,16.725-16.724,0-.254-.006-.509-.018-.761a11.949,11.949,0,0,0,2.933-3.042" transform="translate(-1794.481 -60.393)"/></svg>