<svg xmlns="http://www.w3.org/2000/svg" xmlns:xlink="http://www.w3.org/1999/xlink" width="833.91" height="543.137" viewBox="0 0 833.91 543.137">
  <defs>
    <filter id="Caminho_105112" x="0" y="0" width="833.91" height="543.137" filterUnits="userSpaceOnUse">
      <feOffset input="SourceAlpha"/>
      <feGaussianBlur stdDeviation="49.5" result="blur"/>
      <feFlood flood-color="gray" flood-opacity="0.4"/>
      <feComposite operator="in" in2="blur"/>
      <feComposite in="SourceGraphic"/>
    </filter>
  </defs>
  <g transform="matrix(1, 0, 0, 1, 0, 0)" filter="url(#Caminho_105112)">
    <path id="Caminho_105112-2" data-name="Caminho 105112" d="M39.6,218.9l-33.624.525q-2.1,0-2.5-.525a5.788,5.788,0,0,1-.394-2.627V197.363q0-2.233.525-2.758a4.524,4.524,0,0,1,2.364-.394l33.624.525h67.9V175.56H77.561l-37.039.525q-2.364,0-2.89-.525a4.9,4.9,0,0,1-.394-2.5l.525-24.955V108.05l-.525-24.955q0-2.233.657-2.627a5.3,5.3,0,0,1,2.627-.394l37.039.525H168.32l37.17-.525q2.1,0,2.5.525a4.9,4.9,0,0,1,.394,2.5l-.525,24.955v40.06l.525,24.955q0,2.1-.46,2.561a3.948,3.948,0,0,1-2.43.46l-37.17-.525h-33.1v19.176h70.794l33.624-.525q2.233,0,2.758.525a5.3,5.3,0,0,1,.394,2.627v18.913q0,2.233-.46,2.693t-2.693.46l-33.624-.525H135.221v8.931l.525,28.764q0,2.1-.525,2.5a4.9,4.9,0,0,1-2.5.394H109.872q-2.1,0-2.5-.525a4.524,4.524,0,0,1-.394-2.364l.525-28.764V218.9Zm141.325-64.358V138H64.69v16.549Zm0-52.669H64.69v16.418H180.929ZM70.863,13.352q16.287.525,26.531,1.576,3.546.525,3.546,2.5l-1.313,4.072q-1.313,2.627-1.313,12.872h46.758q-.394-14.448-1.576-21.015,16.812.525,26.531,1.576,3.546.525,3.546,2.5l-1.313,4.072q-1.313,2.627-1.313,12.872h34.412l33.887-.525a4.156,4.156,0,0,1,2.627.525,4.524,4.524,0,0,1,.394,2.364V55.381q0,2.1-.657,2.5a4.1,4.1,0,0,1-2.364.394l-33.887-.525H170.947l.525,13.922q0,2.233-.525,2.627a4.524,4.524,0,0,1-2.364.394H147.567q-2.233,0-2.627-.525a4.9,4.9,0,0,1-.394-2.5q0-.263.263-4.466.131-4.466.263-9.457H98.314l.525,13.922q0,2.233-.525,2.627a4.524,4.524,0,0,1-2.364.394H74.935q-2.233,0-2.627-.525a4.9,4.9,0,0,1-.394-2.5q0-.263.263-4.466.131-4.466.263-9.457H40.523l-33.887.525q-2.233,0-2.627-.525a4.524,4.524,0,0,1-.394-2.364V36.731q0-2.1.525-2.5a4.9,4.9,0,0,1,2.5-.394l33.887.525H72.439Q72.045,19.919,70.863,13.352Zm263.322,87.737-34.412.525q-2.233,0-2.758-.657a5.3,5.3,0,0,1-.394-2.627v-21.8q0-2.233.525-2.758a5.3,5.3,0,0,1,2.627-.394l34.412.525h62.257V48.289q0-24.43-1.97-34.937,17.731.525,30.209,1.839,4.2.525,4.2,2.758a12.757,12.757,0,0,1-.788,3.809l-1.051,3.152q-1.051,3.94-1.051,22.591V73.9h66.591l34.543-.525q2.1,0,2.5.657a4.9,4.9,0,0,1,.394,2.5v21.8q0,2.364-.525,2.89a4.523,4.523,0,0,1-2.364.394l-34.543-.525h-57Q472.358,163.477,540,201.96a72.686,72.686,0,0,0-13.791,19.7q-3.152,6.436-4.991,6.436t-5.648-2.627q-60.155-41.9-91.021-102.054l2.233,132.657q0,1.839-.657,2.233a5.3,5.3,0,0,1-2.627.394H398.806q-2.364,0-2.758-.525a3.429,3.429,0,0,1-.394-2.1q0-3.021.394-22.591,1.445-57.922,1.707-105.994-28.107,57.4-84.716,98.376-4.072,3.021-5.91,3.021-1.576,0-5.122-5.91a68.852,68.852,0,0,0-15.1-18.913q32.048-17.6,59.761-47.021,24.955-26.663,39.534-55.952Z" transform="translate(145.41 135.15)"/>
  </g>
</svg>
