<svg xmlns="http://www.w3.org/2000/svg" width="156.353" height="31.9" viewBox="0 0 156.353 31.9">
  <g id="Grupo_16719" data-name="Grupo 16719" transform="translate(-1985.656 -734.362)">
    <path id="Caminho_105127" data-name="Caminho 105127" d="M2105.4,739.443l-.465.145a2.957,2.957,0,0,0,1.213.131c-4.858,1.054-11.09-.059-15.094-1.636-1.467-.01-2.754-.467-2.872-1.03s.988-1.015,2.472-1.009a7.583,7.583,0,0,0,.952-.161,34.352,34.352,0,0,1,7.647-1.521l-1.7.407a16.144,16.144,0,0,1,2.572-.157l-.334.292c2.876-.594,6.754-.075,8.644,1.1s1.107,2.6-1.762,3.165Z" transform="translate(31.672 0)" fill="#00c977"/>
    <path id="Caminho_105128" data-name="Caminho 105128" d="M2097.814,741.279c1.7-.278,3.344-.56,4.99-.867l.332-.17-.16.849-.029-.056a20.345,20.345,0,0,0-6.257-1.577l-.816-.165a1.131,1.131,0,0,1-.716-.5c-.171-.421.568-.772,1.649-.788l1.245-.013c3.05-.322,7.815-.044,9.4,1.5.356.359,0,.763-.11,1.149.077.572-1.087,1-2.594.948s-2.778-.558-2.848-1.135l-.779.073.593.24c-.4-.52-1.765-.715-2.772-1.039l-1.526-.219.939-1.283.791.221c-.064.052-.186.128-.177.134,1.5.456,2.909.9,4.558,1.238l2.063.61c.551.285.473.657-.162.849l-.944.23.429-.144c-2.156.172-4.419.211-6.549.4a1.355,1.355,0,0,1-.91-.169C2097.313,741.467,2097.466,741.32,2097.814,741.279Z" transform="translate(33.82 1.086)" fill="#00c977"/>
    <g id="Grupo_16719-2" data-name="Grupo 16719" transform="translate(1985.656 736.34)">
      <path id="Caminho_105129" data-name="Caminho 105129" d="M2102.935,740.986a3.237,3.237,0,0,1,1.185-.114l.2.119-.689.186C2103.137,741.312,2102.895,741.17,2102.935,740.986Z" transform="translate(-1949.427 -734.334)" fill="#00c977"/>
      <path id="Caminho_105130" data-name="Caminho 105130" d="M2103.994,740.977l.289-.078-.2.114-.055-.015Z" transform="translate(-1949.098 -734.321)" fill="#00c977"/>
      <path id="Caminho_105131" data-name="Caminho 105131" d="M2037.341,738.305l-19.9,1.631c-.222.018-.414-.03-.429-.114s.152-.156.359-.168l19.88-1.645c.223-.012.41.041.443.118C2037.7,738.211,2037.55,738.287,2037.341,738.305Z" transform="translate(-1975.971 -735.214)" fill="#00c977"/>
      <path id="Caminho_105132" data-name="Caminho 105132" d="M1995.383,747.039c.162.048.164.135.008.208a.881.881,0,0,1-.542.046c-.136-.041-.14-.144-.007-.207A.9.9,0,0,1,1995.383,747.039Z" transform="translate(-1982.848 -732.431)" fill="#00c977"/>
      <path id="Caminho_105133" data-name="Caminho 105133" d="M2000.205,756.773a17.836,17.836,0,0,1,2.593.238.926.926,0,0,0,.427-.047c-.041.138.144.241.478.266,6.575.51,13.568.407,20.464.523a.712.712,0,0,0,.31.289,4.338,4.338,0,0,0,2.444.289l.74-.127,8.979-1.075a10.53,10.53,0,0,0,2.111.179c2.613.293,5.227.526,7.894.738-.163.1-.26.211-.252.331.063.284.686.472,1.4.435l1.085-.024-3.1.342a2.5,2.5,0,0,0-.411.064l-3.454.141c-10.206.205-19.849-.223-29.469-.713a.882.882,0,0,0-.537.075c-.086.076-.063.169.115.191,3.055.456,5.914,1.088,8.857,1.649a88.964,88.964,0,0,0,9.381,1.331c8.11.614,16.087,1.225,24.338,1.652,8.607-.243,16.587.245,25.355.75,11.845.661,23.014.962,34.582,1.441,4.323.39,8.344-.641,8.988-2.276.375-1-.563-2.022-2.327-2.758l1.064.026,1.694-.118a9.345,9.345,0,0,0,3.874-1l1.219-.649c1.644-1.272,4.259-2.244,5.634-3.566l-.259-.546.316-.135a3.319,3.319,0,0,0,2.01-1.315l-.057-.645a4.215,4.215,0,0,0-1.41-2.161,1.04,1.04,0,0,0-.234-.8c.734-.615,1.1-1.281.6-2.073.43-.164.377-.446-.113-.637a2.546,2.546,0,0,0-.587-.135h.005a5.888,5.888,0,0,1,.635-.365l.664-.059,2.086-.1a5.683,5.683,0,0,0,1.375-.457c.989-1.088.99-1.088.881-1.589a2.181,2.181,0,0,0-.169-.152l1-.167a2.017,2.017,0,0,0,.363-.17c.048-.263.048-.263.182-.351a.469.469,0,0,0,.043-.2c-.391-.319-.391-.319-.4-.4a1.434,1.434,0,0,0-.223-.158l-.746-.184-1.08.624-.209-.25-.261.3.155-.281-.534.144.613-.217a11.874,11.874,0,0,1-1.736-.009,5.144,5.144,0,0,1-1.005-.1.448.448,0,0,0,.055-.152l-2.624.077a2.831,2.831,0,0,0-.313.173,1.1,1.1,0,0,0-.619-.14l-.678.01-.143-.05,0-.022-.563-.164-.117-.039-.006,0-2.44-.711c-.4.016-.778.043-1.132.081l.333-.114c.216-.082.037-.345.152-.364a83.345,83.345,0,0,1,9-.55c.543.064,1.064-.056,1.157-.258s-.293-.418-.851-.478a42.8,42.8,0,0,0-9.922-1.522,55.719,55.719,0,0,0-10.147.428l-5.042.162.245-.119-1.312.157-.141.005,1-.437.69-.111c3.91-.034,7.482-.648,11.278-.922,2.041-.149,3.806-.506,5.743-.74.5,0,.848-.15.8-.344s-.5-.335-.987-.338c-6.394-.665-13.742-.653-18.921.771a11.606,11.606,0,0,0-3.242.336l-.054,0,.732-.369c-.877.072-1.352.38-2.153.494l.309-.521c-4.322.188-8.986,0-12.987.688l-.461.039a27.9,27.9,0,0,0-5.492-.809c.691-.054,1.365-.106,2.058-.158a26.651,26.651,0,0,0-4.535-.382c-4.3.026-9.1.9-11.347,2.288L2049,738.653c-.429-.007-.809.12-.878.279-.038.157.25.3.678.3,5.958.3,11.986.436,18.022.573-5.037.348-10.092.763-15.25.99l-1.983.008a14.454,14.454,0,0,0-1.95.158c-6.592.265-12.837.664-19.577.691l-16.558-.022a203.868,203.868,0,0,0-23.388.785c-1.059.061-2,.453-2.084.865s.72.7,1.78.636c16.638-.512,32.932-.336,50.189-1.386l5.516-.344a.427.427,0,0,0-.038.165c.009.219.191.411.49.567q-3.1.234-6.233.566c-2.92-.1-5.843-.151-8.809-.111a87.178,87.178,0,0,0-9.07.514c-4.245.457-8.056,1.244-11.948,2.009-5,.158-9.988.321-15.033.61a.648.648,0,0,0-.472.14c-.064.085.052.152.258.158,3.5.12,7.077.2,10.676.19-.541.3-.845.656-.769,1.006s.543.649,1.229.819l-2.42.253c-.5.06-.877.238-.845.419.029.2.438.3.914.251l9.862-.933,11.88-.362a2.419,2.419,0,0,0-1.085.959v.007l-1.832.1a232.278,232.278,0,0,0-34.217,1.674c-.225.021-.4.107-.4.194s.187.137.39.109c3.466-.419,6.929-.789,10.39-1.059l-.014.005c-.133.064-.151.161.008.207a.972.972,0,0,0,.542-.045c.154-.075.131-.165,0-.207,6.449-.484,12.878-.679,19.227-.648-5.869.369-11.739.8-17.569,1.533l-1.951-.134a.691.691,0,0,0-.467.153c-.042.073.1.147.279.149l.544.029c-1.1.135-1.923.571-1.861,1.007.106.438,1.089.691,2.236.568,3.083-.2,6.147-.457,9.214-.7l1,0,1.017.127c-4.752.554-9.481,1.24-14.177,1.92-.4.038-.737.2-.73.356s.347.254.754.215c8.371-.2,16.814-.526,25.29-.832l8.521,1.458-1.077.085c-9.165.594-17.1-.725-26.025-.281-.225,0-.4.086-.426.166s.141.145.368.124c4.357-.164,8.373.186,12.707.287,3.59.094,7.005.229,10.346.492-6.774.281-13.322-.046-20.055.182a1.583,1.583,0,0,0-.766.156.238.238,0,0,0-.175-.093,24.271,24.271,0,0,0-2.729-.246.658.658,0,0,0-.49.13C1999.885,756.678,2000,756.745,2000.205,756.773ZM2118.6,744.365l.174-.086-.606.136-.862.6Zm10.378,2.812h-.006l.5-.332Zm-67.042-6.474a107.826,107.826,0,0,0,10.776-.754l-2.622-.061C2067.377,740.128,2064.659,740.37,2061.934,740.7Zm63.819,1.572a12.338,12.338,0,0,0-2.444,1.039,11.864,11.864,0,0,0-1.936-.17c-1.779-.024-3.515-.005-5.224.047.23-.216-.179-.2-.387-.239l-.64-.079,5.521-.313C2122.325,742.448,2124.149,742.449,2125.753,742.275Zm12.655,1.555.16-.073-.318-.353Zm.5.6-.263.031C2138.73,744.588,2138.818,744.547,2138.908,744.427Zm-2.413.277a1.575,1.575,0,0,1,.348-.16Zm-2.264,9.723-.825-1.725.911,1.665Z" transform="translate(-1985.656 -735.874)" fill="#00c977"/>
    </g>
  </g>
</svg>
