<svg xmlns="http://www.w3.org/2000/svg" width="99.653" height="74.466" viewBox="0 0 99.653 74.466">
  <g id="Grupo_16702" data-name="Grupo 16702" transform="matrix(0.951, 0.309, -0.309, 0.951, -11.948, -42.702)">
    <path id="Caminho_105068" data-name="Caminho 105068" d="M39.917,50.852l.329.064a.954.954,0,0,1-.628.365c3.221.2,6.225-2.128,7.822-4.55.825-.287,1.359-1.012,1.189-1.633s-.988-.888-1.83-.6a2.8,2.8,0,0,1-.61.009,13.349,13.349,0,0,0-5.02-.156l1.148.1a5.4,5.4,0,0,0-1.539.324l.319.244a4.715,4.715,0,0,0-4.455,2.795c-.552,1.6.549,2.926,2.43,2.985Z" transform="translate(0 5.94)" fill="#277aff"/>
    <path id="Caminho_105069" data-name="Caminho 105069" d="M43.765,51.246c-1.077.024-2.123.027-3.187.012l-.263-.117.471.861-.01-.064a7.254,7.254,0,0,1,2.822-2.82l.389-.326a.839.839,0,0,0,.187-.656c-.087-.476-.658-.709-1.275-.522l-.71.22c-1.866.23-4.452,1.418-4.644,3.335-.039.441.348.8.583,1.181a1.379,1.379,0,0,0,1.889.511,1.518,1.518,0,0,0,1.093-1.717l.47-.069-.226.362c-.009-.619.674-1.077,1.1-1.606l.763-.514L42.12,48.142l-.35.38a1.563,1.563,0,0,1,.159.109,17.541,17.541,0,0,1-2.022,2.147L39.019,51.8a.591.591,0,0,0,.476.86l.634.067-.307-.072c1.289-.22,2.576-.6,3.853-.788a.473.473,0,0,0,.434-.347C44.128,51.351,43.979,51.226,43.765,51.246Z" transform="translate(0.515 7.605)" fill="#277aff"/>
    <g id="Grupo_16701" data-name="Grupo 16701" transform="translate(39.099 32.195)">
      <path id="Caminho_105070" data-name="Caminho 105070" d="M39.324,51.4a1.1,1.1,0,0,0-.716.1l-.061.161.473.067C39.358,51.775,39.43,51.582,39.324,51.4Z" transform="translate(-38.085 -22.692)" fill="#277aff"/>
      <path id="Caminho_105071" data-name="Caminho 105071" d="M38.611,51.576l-.2-.028.163.082.024-.024Z" transform="translate(-38.151 -22.61)" fill="#277aff"/>
      <path id="Caminho_105072" data-name="Caminho 105072" d="M72.66,38.082,84.3,36.058c.13-.022.224-.114.211-.209s-.129-.144-.247-.115L72.622,37.739a.244.244,0,0,0-.212.215A.2.2,0,0,0,72.66,38.082Z" transform="translate(-21.312 -30.446)" fill="#277aff"/>
      <path id="Caminho_105073" data-name="Caminho 105073" d="M92.8,39.587a.137.137,0,0,0,.042.233.277.277,0,0,0,.31-.052.148.148,0,0,0-.042-.233A.282.282,0,0,0,92.8,39.587Z" transform="translate(-11.235 -28.573)" fill="#277aff"/>
      <path id="Caminho_105074" data-name="Caminho 105074" d="M120.122,50.618a5.811,5.811,0,0,0-1.349.764.278.278,0,0,1-.241.028.319.319,0,0,1-.2.389,100.816,100.816,0,0,1-10.85,4.459.867.867,0,0,1-.088.378,1.473,1.473,0,0,1-1.223.778l-.429,0-5.081.483a3.217,3.217,0,0,1-1.072.591c-1.305.8-2.623,1.546-3.972,2.268a.534.534,0,0,1,.233.317.707.707,0,0,1-.609.736l-.58.172,1.742-.191a.7.7,0,0,1,.236,0c.616-.153,1.241-.295,1.868-.479a112.9,112.9,0,0,0,15.461-6.291.263.263,0,0,1,.305-.018.147.147,0,0,1-.013.233c-1.522,1.087-2.884,2.327-4.3,3.5a29.385,29.385,0,0,1-4.594,3.221c-4.094,2.183-8.076,4.308-12.23,6.262a79.7,79.7,0,0,0-12.9,5.311c-5.9,2.789-11.562,5.027-17.375,7.5-2.081,1.144-4.613.73-5.66-.89a3.17,3.17,0,0,1,.045-3.315l-.552.212-.948.164a3.8,3.8,0,0,1-2.493-.39l-.933-.473c-1.434-1.054-3.269-1.622-4.6-2.769l-.1-.618-.232-.087A2.9,2.9,0,0,1,45.7,71.832l-.259-.688a5.971,5.971,0,0,1-.2-2.515,2.021,2.021,0,0,1-.23-.888,2.813,2.813,0,0,1-1.256-2.067.429.429,0,0,1-.223-.691.823.823,0,0,1,.265-.247h0a4.387,4.387,0,0,0-.514-.268l-.395.058-1.2.278a2.894,2.894,0,0,1-.97-.229c-1.045-.958-1.047-.957-1.213-1.5a1.351,1.351,0,0,1,.027-.19l-.637.007a1.327,1.327,0,0,1-.28-.109c-.148-.266-.147-.266-.262-.335a1.059,1.059,0,0,1-.115-.2c.075-.405.075-.405.039-.5a1.031,1.031,0,0,1,.052-.206l.335-.33.888.455,0-.3.283.266-.214-.265.363.052-.441-.115a3.691,3.691,0,0,0,.969-.33,1.563,1.563,0,0,0,.517-.292.8.8,0,0,1-.1-.15l1.5-.4a1.785,1.785,0,0,1,.251.123.393.393,0,0,1,.284-.26l.384-.115.058-.078-.012-.022.244-.277.048-.063,0,0,1.056-1.2a5.314,5.314,0,0,1,.668-.126l-.236-.058c-.157-.046-.17-.357-.244-.354a26.862,26.862,0,0,0-5.3,1.092.6.6,0,0,1-.767-.055c-.141-.2-.024-.493.265-.661a16.292,16.292,0,0,1,10.833-4.9c.97-.239,1.936-.5,2.9-.767l-.187-.082.8-.078.081-.021-.743-.278-.434.01c-2.212.692-4.481.712-6.747,1.133-1.219.224-2.373.179-3.575.3-.283.093-.547,0-.6-.211s.138-.449.413-.541c3.346-1.908,7.541-3.293,11.046-2.747a3.923,3.923,0,0,1,1.966-.251l.03,0-.561-.257c.525-.088.917.151,1.413.123l-.383-.5c2.512-.609,5.068-1.694,7.581-1.7a2.327,2.327,0,0,1,.275-.043,9.284,9.284,0,0,1,2.784-1.911l-1.219.218A8.5,8.5,0,0,1,67.229,44.3c2.431-.785,5.453-.751,7.2.335L88.38,39.869a.47.47,0,0,1,.579.138c.07.164-.048.375-.286.464-3.245,1.471-6.57,2.763-9.894,4.054,2.931-.571,5.884-1.077,8.831-1.808l1.11-.369a4.418,4.418,0,0,1,1.136-.2c3.759-.964,7.36-1.72,11.139-2.986,3.224-1.11,6.057-2.07,9.289-3.228a64.17,64.17,0,0,1,13.417-3.7,1.128,1.128,0,0,1,1.367.558c.132.443-.265.923-.879,1.062-9.546,2.7-18.593,6.053-28.492,8.185-1.071.229-2.123.452-3.172.674a.937.937,0,0,1,.072.175,1.01,1.01,0,0,1-.1.718c1.195-.224,2.406-.41,3.628-.565,1.592-.664,3.2-1.283,4.866-1.808a26.4,26.4,0,0,1,5.19-1.174,42.166,42.166,0,0,1,7.167-.076c2.823-.79,5.651-1.581,8.543-2.243a.244.244,0,0,1,.295.064c.055.084,0,.179-.109.227-1.936.821-3.915,1.6-5.92,2.291a1.306,1.306,0,0,1,.662.972,1.417,1.417,0,0,1-.49,1.151l1.4-.185c.29-.031.541.1.565.3.028.226-.175.422-.449.458-1.9.254-3.78.564-5.667.863l-6.632,1.875a2.128,2.128,0,0,1,.849.857v.006l1.032-.235a69.8,69.8,0,0,1,19.258-4.742.213.213,0,0,1,.262.141.192.192,0,0,1-.194.2c-2.008.2-4.007.468-5.981.839l.009,0a.141.141,0,0,1,.042.232.3.3,0,0,1-.31.055.142.142,0,0,1-.043-.232,72.229,72.229,0,0,0-10.745,2.983,84.7,84.7,0,0,1,10.028-1.673l1.045-.528a.263.263,0,0,1,.292.081c.04.075-.019.182-.12.221l-.295.138a1.052,1.052,0,0,1,1.247.764,1.134,1.134,0,0,1-1.1,1.066c-1.735.375-3.472.676-5.207,1l-.547.188-.526.336c2.73-.293,5.473-.443,8.19-.588a.4.4,0,0,1,.476.257c.031.173-.135.35-.365.384-4.613,1.4-9.274,2.648-13.936,3.913-1.392,1.069-2.8,2.146-4.2,3.222l.6-.106c5.069-1.062,9.015-4.034,13.977-5.257a.211.211,0,0,1,.269.1.182.182,0,0,1-.17.211,60.875,60.875,0,0,0-6.805,2.745,59.206,59.206,0,0,0-5.434,2.5c3.7-.961,7.142-2.566,10.835-3.6a.487.487,0,0,1,.45.027.187.187,0,0,1,.073-.138,7.878,7.878,0,0,1,1.421-.8.228.228,0,0,1,.295.051C120.273,50.451,120.226,50.55,120.122,50.618ZM51.75,59.061,51.617,59l.393.033.728.481Zm-4.537,4.864h0l-.42-.259ZM81.805,44.574a33.032,33.032,0,0,1-6.262,1.214l1.441-.562C78.58,44.975,80.178,44.73,81.805,44.574ZM46.875,58.162a6.95,6.95,0,0,1,1.811.649,3.647,3.647,0,0,1,1-.537c.981-.351,1.953-.653,2.925-.912-.217-.187.015-.25.117-.324l.323-.2-3.206.686C48.865,57.714,47.847,58.05,46.875,58.162Zm-6.386,3.966-.123-.046.019-.429Zm-.01.718.161-.016C40.65,62.982,40.584,62.955,40.478,62.846Zm1.471-.151a.866.866,0,0,0-.266-.1Zm5.592,9.8-.321-1.957.247,1.91Z" transform="translate(-38.238 -32.195)" fill="#277aff"/>
    </g>
  </g>
</svg>
