<svg xmlns="http://www.w3.org/2000/svg" width="133.16" height="84.6" viewBox="0 0 133.16 84.6">
  <g id="Grupo_16700" data-name="Grupo 16700" transform="translate(261.572 -60.763) rotate(-163)">
    <path id="Caminho_105061" data-name="Caminho 105061" d="M96.853-143.4l.4-.058a2.644,2.644,0,0,1-.88.506,26.969,26.969,0,0,0,11-6.206c1.122-.484,1.976-1.218,1.9-1.655s-1.056-.4-2.2.088a7.912,7.912,0,0,1-.777.2,30.663,30.663,0,0,0-6.306,1.476l1.423-.281a14.743,14.743,0,0,0-2.017.747l.343.093a12.354,12.354,0,0,0-6.252,3.721c-1.081,1.477-.039,2.193,2.312,1.611Z" fill="#ff5050"/>
    <path id="Caminho_105062" data-name="Caminho 105062" d="M101.866-143.2l-4.04,1.082-.3-.006.381.541,0-.05a17.328,17.328,0,0,1,4.266-3.218l.572-.387a.942.942,0,0,0,.4-.585c0-.353-.665-.354-1.494-.007l-.955.4c-2.414.8-5.946,2.633-6.673,4.254-.159.373.238.533.439.766.118.426,1.132.327,2.255-.22s1.931-1.335,1.808-1.763l.611-.214-.375.37c.141-.5,1.118-1.1,1.782-1.672.36-.231.73-.442,1.1-.663l-1.1-.589-.533.422a1.715,1.715,0,0,1,.174.034c-1,.831-1.93,1.624-3.077,2.42l-1.375,1.129c-.329.388-.155.621.384.54l.786-.16-.369.045c1.683-.613,3.406-1.355,5.074-1.944a1.21,1.21,0,0,0,.64-.419C102.3-143.236,102.144-143.289,101.866-143.2Z" fill="#ff5050"/>
    <g id="Grupo_16699" data-name="Grupo 16699">
      <path id="Caminho_105063" data-name="Caminho 105063" d="M96.362-140.21a2.887,2.887,0,0,0-.931.323l-.117.152.58-.1C96.31-139.915,96.449-140.1,96.362-140.21Z" fill="#ff5050"/>
      <path id="Caminho_105064" data-name="Caminho 105064" d="M95.314-139.735l-.243.043.184.013.038-.029Z" fill="#ff5050"/>
      <path id="Caminho_105065" data-name="Caminho 105065" d="M166.673-170.156q8.052-1.929,16.182-3.655c.181-.039.322-.119.317-.184s-.157-.079-.323-.038c-5.422,1.133-10.8,2.352-16.17,3.638-.18.048-.315.134-.323.2C166.364-170.133,166.5-170.117,166.673-170.156Z" fill="#ff5050"/>
      <path id="Caminho_105066" data-name="Caminho 105066" d="M208.017-172.85c-.12.068-.1.132.035.155a.8.8,0,0,0,.441-.077c.1-.058.084-.135-.035-.154A.789.789,0,0,0,208.017-172.85Z" fill="#ff5050"/>
      <path id="Caminho_105067" data-name="Caminho 105067" d="M207.665-167.8a15.6,15.6,0,0,0-2.008.705.844.844,0,0,1-.347.052c.06.093-.066.206-.325.293-5.1,1.73-10.628,3.17-16.014,4.807a.56.56,0,0,1-.18.281,3.855,3.855,0,0,1-1.85.771l-.607.079c-2.424.436-4.853.843-7.261,1.314a9.21,9.21,0,0,1-1.606.642c-1.967.851-3.956,1.625-5.972,2.461.15.029.252.088.275.176.017.223-.421.516-.985.667l-.846.255,2.484-.528a2.225,2.225,0,0,1,.334-.057l2.717-.736c7.974-2.348,15.427-4.828,22.9-7.264a.76.76,0,0,1,.438-.06c.084.037.084.111-.051.166-2.314.973-4.422,2.076-6.606,3.144-1.092.532-2.2,1.056-3.369,1.562-1.158.531-2.369,1.049-3.667,1.539-6.186,2.3-12.21,4.719-18.464,7.1-3.327,1.051-6.523,2.089-9.654,3.361l-4.734,1.887-4.813,2.047c-8.827,3.771-17.155,7.274-25.655,11.2-3.11,1.62-6.411,2.155-7.372,1.223-.576-.582-.185-1.608.917-2.69l-.788.36-1.3.464a7.924,7.924,0,0,1-3.191.549l-1.106-.06c-1.616-.369-3.858-.177-5.288-.641l.027-.469-.276.011a2.7,2.7,0,0,1-1.907-.247l-.154-.471a3.231,3.231,0,0,1,.393-1.986.766.766,0,0,1-.069-.643c-.739-.183-1.222-.524-1.083-1.25-.375.031-.422-.185-.111-.485a2.207,2.207,0,0,1,.4-.292h0a5.121,5.121,0,0,0-.588-.041l-.519.183-1.6.638a4.9,4.9,0,0,1-1.176.146c-1.083-.425-1.084-.425-1.156-.812a1.543,1.543,0,0,1,.081-.163l-.807.222a1.737,1.737,0,0,1-.326,0c-.119-.167-.119-.167-.247-.183a.346.346,0,0,1-.094-.123c.2-.357.2-.357.175-.418a1.125,1.125,0,0,1,.119-.186l.506-.382,1.01.069.081-.246.29.122-.2-.144.448-.081-.53.056a10.791,10.791,0,0,0,1.31-.6,4.534,4.534,0,0,0,.727-.412A.309.309,0,0,1,98.3-141l2.006-.836a2.127,2.127,0,0,1,.289.014.981.981,0,0,1,.425-.308l.515-.223.093-.083-.009-.015c.153-.121.258-.205.378-.3l.077-.065h.006l1.642-1.3c.31-.122.6-.226.885-.317l-.289.03c-.188.013-.131-.231-.224-.205a62.942,62.942,0,0,0-7,2.641c-.391.23-.822.323-.955.214s.094-.393.5-.625a35.456,35.456,0,0,1,7.08-4.407c1.3-.63,2.621-1.209,3.941-1.727,1.33-.5,2.658-.923,3.941-1.288l3.909-1.507-.222-.006,1.054-.3.111-.04-.9,0c-.189.04-.373.091-.561.141-3,1.241-5.93,1.933-8.909,3-1.6.572-3.056.907-4.607,1.386-.379.165-.692.177-.713.025s.282-.4.653-.565c4.678-2.614,10.337-4.987,14.731-5.615a10.525,10.525,0,0,1,2.6-.776l.041-.014-.668-.033c.7-.222,1.15-.153,1.8-.323l-.385-.273a86.68,86.68,0,0,1,10.238-3.483l.368-.111a24.764,24.764,0,0,1,4.053-2.193l-1.644.491a24,24,0,0,1,3.429-1.6c3.354-1.243,7.353-1.951,9.463-1.6q9.732-3.51,19.6-6.672c.338-.114.669-.119.762-.021.067.1-.127.279-.465.392l-14.046,5.164,12.232-3.324,1.568-.5a13.1,13.1,0,0,1,1.576-.381c2.627-.767,5.215-1.408,7.8-2.1,2.582-.716,5.191-1.385,7.875-2.168,2.288-.692,4.444-1.3,6.6-1.9s4.3-1.256,6.613-1.86c3.234-.886,6.329-1.748,9.45-2.439,1.559-.355,3.116-.713,4.7-1.013s3.188-.549,4.829-.784c.867-.161,1.706-.056,1.849.233s-.449.657-1.316.819c-13.529,2.857-26.522,6.5-40.417,9.956l-4.445,1.1a.32.32,0,0,1,.069.111c.044.162-.056.345-.255.533q2.5-.591,5.06-1.113c2.284-.8,4.592-1.519,6.957-2.183,1.182-.335,2.379-.657,3.6-.957,1.221-.279,2.464-.527,3.732-.752,1.743-.3,3.41-.547,5.057-.716l4.9-.43c2.01-.495,4.028-.939,6.054-1.376s4.053-.912,6.114-1.266a.569.569,0,0,1,.407.012c.068.05-.013.122-.176.167-2.793.76-5.637,1.585-8.52,2.3.494.112.81.311.819.584s-.3.591-.816.856l1.984-.308c.41-.058.749,0,.76.135s-.29.313-.678.373c-2.7.4-5.372.907-8.051,1.391-3.188.726-6.332,1.588-9.509,2.363a1.979,1.979,0,0,1,1.068.46l0,0,1.474-.334a157,157,0,0,1,27.611-5.871c.184-.028.344,0,.356.066s-.124.138-.291.157c-2.855.368-5.7.753-8.521,1.249h.012c.119.019.152.087.034.154a.869.869,0,0,1-.442.078c-.137-.023-.136-.1-.036-.153-2.62.5-5.232.989-7.8,1.6-2.57.629-5.126,1.247-7.638,1.971,4.737-1.011,9.494-1.949,14.293-2.582l1.53-.5a.6.6,0,0,1,.4.018c.049.045-.047.128-.192.167l-.429.132c.907-.127,1.646.031,1.682.368,0,.341-.733.728-1.669.872l-7.471,1.381-.8.211-.781.311c1.94-.315,3.888-.573,5.834-.807s3.882-.5,5.823-.688c.33-.05.627.005.651.122s-.227.255-.558.3c-6.7,1.524-13.463,3.03-20.211,4.711-2.124.977-4.247,1.947-6.385,3l.864-.188c7.324-1.656,13.3-4.363,20.485-5.851.179-.045.337-.018.371.036s-.084.136-.267.167c-3.495.75-6.6,1.884-10,2.878-2.815.84-5.469,1.722-8.039,2.651,2.7-.633,5.306-1.421,7.926-2.146,2.625-.7,5.236-1.47,7.927-2.064a1.385,1.385,0,0,1,.639-.041c.007-.035.05-.073.119-.105a21.484,21.484,0,0,1,2.114-.737.574.574,0,0,1,.415,0C207.9-167.931,207.821-167.858,207.665-167.8Zm-95.151,22.066-.158,0,.5-.1.832.15Zm-7.04,5.358,0,0-.478-.069Zm49.871-24.649c-2.87.885-5.712,1.754-8.633,2.392l2.038-.763C150.937-163.955,153.12-164.545,155.345-165.022Zm-48.9,20.142a10.469,10.469,0,0,1,2.165-.075,9.4,9.4,0,0,1,1.423-.749c1.351-.587,2.681-1.13,4-1.64-.238-.079.078-.2.226-.294l.465-.26-4.3,1.549C109.1-145.9,107.722-145.286,106.45-144.88Zm-9.115,5.325-.143,0,.132-.356Zm-.194.587.208-.067C97.325-138.915,97.247-138.914,97.141-138.968Zm1.9-.623a1.247,1.247,0,0,0-.312.007Zm4.672,6.048.09-1.486-.173,1.472Z" fill="#ff5050"/>
    </g>
  </g>
</svg>
