<svg xmlns="http://www.w3.org/2000/svg" xmlns:xlink="http://www.w3.org/1999/xlink" width="831.984" height="541.37" viewBox="0 0 831.984 541.37">
  <defs>
    <filter id="Caminho_105109" x="0" y="0" width="831.984" height="541.37" filterUnits="userSpaceOnUse">
      <feOffset input="SourceAlpha"/>
      <feGaussianBlur stdDeviation="49.5" result="blur"/>
      <feFlood flood-color="#277aff" flood-opacity="0.6"/>
      <feComposite operator="in" in2="blur"/>
      <feComposite in="SourceGraphic"/>
    </filter>
  </defs>
  <g transform="matrix(1, 0, 0, 1, 0, 0)" filter="url(#Caminho_105109)">
    <path id="Caminho_105109-2" data-name="Caminho 105109" d="M62.261,185.511a171.907,171.907,0,0,1-29.525,66.035q-3.427,4.613-4.877,4.613t-5.272-4.35A65.449,65.449,0,0,0,2.816,237.048Q28.651,209.1,34.977,170.09A310.357,310.357,0,0,0,38.8,120.926l-.527-43.5q0-2.241.527-2.636a4.54,4.54,0,0,1,2.373-.4l37.433.527h99.646l37.433-.527q2.768,0,2.768,3.032l-.527,26.757V151.9l.527,25.966q0,3.032-2.768,3.032H191.432q-2.636,0-2.636-3.032V166H65.688Q63.579,178.921,62.261,185.511ZM188.8,101.418H67.929v38.092H188.8ZM47.235,51.463,12.7,51.991a4.171,4.171,0,0,1-2.636-.527,4.54,4.54,0,0,1-.4-2.373V27.475q0-2.109.659-2.636a4.118,4.118,0,0,1,2.373-.4l34.533.527h158.7l34.533-.527q2.241,0,2.636.527a4.92,4.92,0,0,1,.4,2.5V49.091q0,2.109-.527,2.5a4.92,4.92,0,0,1-2.5.4l-34.533-.527ZM400.984,224.79l-36.774.527q-2.109,0-2.5-.527a4.54,4.54,0,0,1-.4-2.373V206.073a2.2,2.2,0,0,1,2.9-2.9l36.774.527h26.889V189.2H393.867l-37.433.527q-2.241,0-2.636-.659a5.317,5.317,0,0,1-.4-2.636V171.276q0-2.241.527-2.768a4.92,4.92,0,0,1,2.5-.4l37.433.527h4.086a128.251,128.251,0,0,0-8.567-19.376l-32.952.527a4.171,4.171,0,0,1-2.636-.527,4.539,4.539,0,0,1-.4-2.373V131.47q0-2.373.527-2.9a4.92,4.92,0,0,1,2.5-.4l37.433.527h34.006V114.994H405.2l-35.852.527a4.171,4.171,0,0,1-2.636-.527,4.54,4.54,0,0,1-.4-2.373V97.069q0-2.636,3.032-2.636l35.852.527h22.671q-.4-8.7-1.054-13.972,12.653.264,27.02,1.582,4.086.4,4.086,3.163a12.917,12.917,0,0,1-1.318,4.613,13.4,13.4,0,0,0-1.714,4.613h26.493l36.379-.527q3.032,0,3.032,2.636v15.553q0,2.109-.527,2.5a4.92,4.92,0,0,1-2.5.4l-36.379-.527H454.894V128.7H497.6l37.17-.527q2.241,0,2.636.527a6.238,6.238,0,0,1,.4,2.768v15.421a3.962,3.962,0,0,1-.461,2.438q-.461.461-2.57.461l-37.17-.527h-1.977a11.592,11.592,0,0,0-2.636,3.822q-5.668,11.2-8.04,15.553h12.39l37.17-.527q2.241,0,2.636.659a4.92,4.92,0,0,1,.4,2.5v15.158a5.01,5.01,0,0,1-.461,2.768q-.461.527-2.57.527l-37.17-.527H454.894v14.5h32.161l36.906-.527q2.241,0,2.636.527a4.54,4.54,0,0,1,.4,2.373v16.344a3.962,3.962,0,0,1-.461,2.438q-.461.461-2.57.461l-36.906-.527H454.894v6.722l.527,23.989q0,2.768-2.636,2.768H430.641q-2.372,0-2.768-.527a5.392,5.392,0,0,1-.264-2.241l.264-23.989V224.79Zm66.826-75.525H416.274q6.063,13.313,8.172,19.376H458.98A153.827,153.827,0,0,0,467.811,149.264ZM402.039,18.248H484.55l37.038-.527q2.372,0,2.9.527a4.92,4.92,0,0,1,.4,2.5l-.527,18.058V57.131l.527,17.794q0,2.373-.659,2.9a5.317,5.317,0,0,1-2.636.4l-37.038-.527H402.039L365.4,78.22q-2.241,0-2.636-.527a6.239,6.239,0,0,1-.4-2.768l.527-17.794V38.81l-.527-18.058q0-2.241.527-2.636a4.92,4.92,0,0,1,2.5-.4Zm98.2,40.465V38.546H477.3V58.713Zm-114.145,0H408.5V38.546H386.09ZM431.7,38.546V58.713H454.1V38.546Zm-102.282,115.2a123.107,123.107,0,0,0,14.631,13.313q5.931,4.481,5.931,6.722a33.429,33.429,0,0,1-1.318,6.195q-12.39,35.72-23.857,60.763-3.954,8.567-3.954,10.413,0,3.822-3.032,3.822a11.028,11.028,0,0,1-5.141-1.582q-10.413-6.459-20.826-14.235a136.906,136.906,0,0,0,13.313-21.616Q317.155,192.1,329.413,153.746ZM319.132,14.821A205.18,205.18,0,0,1,356.961,43.16q1.582,1.186,1.582,2.109,0,1.186-1.845,3.559L345.1,64.776q-2.241,2.636-3.032,2.636a3.188,3.188,0,0,1-2.373-1.582q-18.585-18.585-37.3-30.052-1.845-1.054-1.845-1.845,0-.923,1.845-3.3l11.6-14.762q1.845-1.977,2.768-1.977A5.48,5.48,0,0,1,319.132,14.821Zm-9.49,68.012a186.572,186.572,0,0,1,37.829,27.548q1.45,1.318,1.45,2.109t-1.714,3.3l-11.6,15.553q-2.109,2.768-3.163,2.768-.791,0-2.241-1.45a222.31,222.31,0,0,0-37.565-29.393q-1.845-1.054-1.845-2.109a6.375,6.375,0,0,1,1.582-2.636l11.863-14.367q1.845-2.241,3.032-2.241A5.48,5.48,0,0,1,309.642,82.834Z" transform="translate(145.68 134.6)" fill="#277aff"/>
  </g>
</svg>
