<svg xmlns="http://www.w3.org/2000/svg" width="156.667" height="34.399" viewBox="0 0 156.667 34.399">
  <g id="Grupo_16713" data-name="Grupo 16713" transform="translate(-1273.217 -734.747)">
    <path id="Caminho_105083" data-name="Caminho 105083" d="M1278.359,741.507l.55.05a3.478,3.478,0,0,1-1.323.428,43.709,43.709,0,0,0,16.427-3.935c1.593-.119,2.943-.665,3.051-1.306s-1.116-1.086-2.744-.99a7.677,7.677,0,0,1-1.062-.114,28.99,28.99,0,0,0-8.794-.877l2,.217a15.252,15.252,0,0,0-2.978.21l.428.264c-3.393-.251-7.93,1.253-9.823,3.077-1.909,1.873-.557,3.081,2.781,2.979Z" transform="translate(0 0)" fill="#febf66"/>
    <path id="Caminho_105084" data-name="Caminho 105084" d="M1284.647,742.094c-1.868-.063-3.7-.071-5.554-.07l-.4-.111.36.892.019-.068c1.418-1.207,4.062-2.141,6.518-2.829l.864-.286a1.244,1.244,0,0,0,.716-.638c.135-.488-.72-.784-1.912-.66l-1.382.188c-3.422.066-8.794,1.493-10.109,3.695-.294.487.214.822.436,1.21.079.649,1.447.754,3.051.344s2.867-1.231,2.83-1.863l.861-.067-.6.375c.324-.634,1.781-1.141,2.826-1.635l1.63-.482-1.23-1.264-.837.367a2.439,2.439,0,0,1,.217.121c-1.583.749-3.051,1.494-4.785,2.239l-2.113,1.151c-.529.462-.343.842.389.88l1.075.031-.5-.058c2.365-.325,4.808-.736,7.114-.828a1.436,1.436,0,0,0,.943-.329C1285.211,742.222,1285.027,742.084,1284.647,742.094Z" transform="translate(0.211 1.623)" fill="#febf66"/>
    <g id="Grupo_16712" data-name="Grupo 16712" transform="translate(1274.086 735.992)">
      <path id="Caminho_105085" data-name="Caminho 105085" d="M1276.212,742.369a3.5,3.5,0,0,0-1.3.194l-.187.184.789.016C1276.079,742.774,1276.3,742.557,1276.212,742.369Z" transform="translate(-1273.394 -732.505)" fill="#febf66"/>
      <path id="Caminho_105086" data-name="Caminho 105086" d="M1274.831,742.63l-.329-.006.242.068.054-.029Z" transform="translate(-1273.498 -732.389)" fill="#febf66"/>
      <path id="Caminho_105087" data-name="Caminho 105087" d="M1339.351,738.638c6.477.557,12.983,1.029,19.486,1.474.217.016.4-.044.418-.137s-.152-.171-.353-.178c-6.506-.458-12.98-.933-19.457-1.49-.219-.012-.4.05-.434.134C1339,738.536,1339.147,738.619,1339.351,738.638Z" transform="translate(-1243.988 -734.364)" fill="#febf66"/>
      <path id="Caminho_105088" data-name="Caminho 105088" d="M1372.271,746.344c-.159.061-.157.157,0,.232a.785.785,0,0,0,.533.026c.133-.052.134-.168,0-.23A.776.776,0,0,0,1372.271,746.344Z" transform="translate(-1228.827 -730.703)" fill="#febf66"/>
      <path id="Caminho_105089" data-name="Caminho 105089" d="M1415.466,758.334a15.962,15.962,0,0,0-2.555.4.829.829,0,0,1-.422-.032c.044.151-.136.276-.465.321-6.483.873-13.407,1.013-20.231,1.354a.77.77,0,0,1-.3.332,3.8,3.8,0,0,1-2.415.383l-.735-.125-8.9-1a9.444,9.444,0,0,1-2.09.232c-2.584.348-5.175.692-7.818.924a.45.45,0,0,1,.251.367c-.063.316-.681.529-1.39.491l-1.074-.019,3.074.363a2.224,2.224,0,0,1,.408.07q1.69.083,3.425.108a271.088,271.088,0,0,0,29.192-1.565.776.776,0,0,1,.532.063c.087.08.067.184-.109.217-6.031,1.29-11.272,3.138-18.033,3.887-8.047.9-15.975,1.637-24.187,2.167-8.56-.293-16.5.246-25.242.6-5.892.249-11.66.359-17.315.4-5.616.05-10.942.082-16.067.376-3.826.423-7.219-.488-7.958-2.294-.421-1.1.3-2.258,1.812-3.16l-.943.08-1.516-.058a7.614,7.614,0,0,1-3.523-.828l-1.166-.6c-1.631-1.237-4.141-1.989-5.671-3.217l.122-.633-.318-.1a3.435,3.435,0,0,1-2.148-1.093l-.1-.713a4.43,4.43,0,0,1,.86-2.61,1.233,1.233,0,0,1,.06-.917c-.847-.554-1.372-1.215-1.031-2.164-.469-.106-.479-.424-.021-.717a2.355,2.355,0,0,1,.567-.246h-.006a6.109,6.109,0,0,0-.72-.29l-.691.06-2.15.335a7.956,7.956,0,0,1-1.52-.171c-1.306-.924-1.319-.92-1.338-1.491a2.378,2.378,0,0,1,.135-.207l-1.1.083a2.192,2.192,0,0,1-.428-.086c-.128-.27-.128-.27-.294-.328a.547.547,0,0,1-.1-.2c.324-.449.325-.45.308-.542a1.5,1.5,0,0,1,.192-.23l.746-.4,1.315.388.159-.328.353.258-.235-.265.6.032-.708-.09a14.531,14.531,0,0,0,1.851-.41,5.459,5.459,0,0,0,1.049-.335.473.473,0,0,1-.092-.155c1.427-.24,1.428-.219,2.819-.411a2.752,2.752,0,0,1,.364.131,1.1,1.1,0,0,1,.634-.256l.724-.088.143-.074-.006-.023.573-.268.117-.061h.007c.4-.182.968-.468,2.5-1.119.43-.032.833-.047,1.217-.048l-.37-.084c-.24-.066-.082-.379-.207-.385a47.885,47.885,0,0,0-9.844.908c-.578.2-1.176.187-1.328-.01s.223-.525.825-.721a33.836,33.836,0,0,1,10.679-3.362,42.588,42.588,0,0,1,10.944-.176q2.635.068,5.276.137l-.254-.137,1.355.179.146.007-1.036-.49-.716-.13c-4.065-.064-7.88-.609-12.05-.633-2.24-.007-4.228-.219-6.43-.2-.552.06-.97-.045-.944-.265s.519-.447,1.064-.513c7.153-1.657,15.18-1.769,20.528-.128a10.643,10.643,0,0,1,3.343.414l.054.006-.746-.423a21.811,21.811,0,0,1,2.2.595l-.3-.589c4.415.342,9.047.255,12.923,1.181l.449.061a24.344,24.344,0,0,1,5.391-.759l-2.005-.23a22.578,22.578,0,0,1,4.439-.3c4.194.14,8.866,1.172,11.04,2.768,8.125.026,16.261.133,24.376.05.42-.012.79.127.858.3.036.173-.246.332-.665.343-5.831.4-11.734.529-17.646.631,4.925.449,9.873.891,14.924,1.132l1.944-.007a12.483,12.483,0,0,1,1.909.16c6.457.251,12.578.587,19.182.446,5.642-.13,10.581-.294,16.21-.554a210.934,210.934,0,0,1,22.9-.276c1.036.009,1.975.389,2.068.842s-.676.818-1.715.809c-16.291.4-32.267,1.265-49.193.361l-5.409-.293a.551.551,0,0,1,.038.182.844.844,0,0,1-.481.64q3.041.205,6.115.528a123.836,123.836,0,0,1,17.541.01c4.168.392,7.923,1.1,11.76,1.794,4.907-.022,9.806-.1,14.763-.052a.564.564,0,0,1,.466.128c.066.09-.045.172-.246.191-3.431.357-6.935.571-10.469.758.539.309.85.688.783,1.08-.066.408-.515.75-1.185.974l2.386.16c.491.041.869.222.844.423-.023.222-.423.357-.891.327l-9.72-.608-11.692.013a2.423,2.423,0,0,1,1.082,1.031v.007l1.8.052a247.152,247.152,0,0,1,33.7.28c.223.012.4.1.4.194s-.178.163-.377.144q-5.135-.413-10.253-.589l.013,0c.134.064.154.172,0,.232a.852.852,0,0,1-.535-.025c-.154-.074-.134-.178,0-.23-6.358-.207-12.684-.15-18.932.119,5.786.185,11.568.439,17.328.943l1.917-.24a.621.621,0,0,1,.463.147c.044.08-.089.169-.268.181l-.535.057c1.09.1,1.911.542,1.864,1.028-.089.5-1.049.826-2.182.743q-4.562-.125-9.1-.334l-.987.036-1,.182c4.695.439,9.377.936,14.028,1.46.4.017.735.178.732.353s-.332.3-.734.283c-8.259.217-16.6.246-24.976.162l-8.4,1.868,1.065.068c9.074.41,16.885-1.331,25.7-1.284.221-.01.4.074.424.163s-.134.168-.358.156c-4.307.054-8.262.579-12.543.872-3.547.255-6.917.478-10.218.895,6.7.1,13.171-.494,19.829-.548a1.4,1.4,0,0,1,.761.134.241.241,0,0,1,.17-.112,21.874,21.874,0,0,1,2.688-.41.589.589,0,0,1,.488.12C1415.779,758.213,1415.666,758.294,1415.466,758.334Zm-117.019-13.375-.181-.093.624.138.9.651Zm-10.33,3.839h.006c-.321-.179-.551-.31-.551-.31Zm66.454-6.946a89.89,89.89,0,0,1-10.543-.925l2.568-.047C1349.246,741.158,1351.9,741.492,1354.571,741.852Zm-63.689,1.2a10.629,10.629,0,0,1,2.651.978,11.536,11.536,0,0,1,2-.306c1.842-.12,3.63-.153,5.384-.123-.242-.233.181-.234.392-.271l.653-.09c-1.87-.085-3.76-.163-5.706-.2C1294.5,743,1292.592,743.094,1290.881,743.047Zm-13.124,3.661-.187-.042.252-.456Zm-.379.759.283-.025C1277.6,747.6,1277.5,747.578,1277.378,747.467Zm2.585-.224a1.508,1.508,0,0,0-.4-.1Zm4.284,10.233.426-2.016-.519,1.962Z" transform="translate(-1273.813 -735.601)" fill="#febf66"/>
    </g>
  </g>
</svg>
