<svg xmlns="http://www.w3.org/2000/svg" xmlns:xlink="http://www.w3.org/1999/xlink" width="829.387" height="540.349" viewBox="0 0 829.387 540.349">
  <defs>
    <filter id="Caminho_105110" x="0" y="0" width="829.387" height="540.349" filterUnits="userSpaceOnUse">
      <feOffset input="SourceAlpha"/>
      <feGaussianBlur stdDeviation="49.5" result="blur"/>
      <feFlood flood-color="#febf66"/>
      <feComposite operator="in" in2="blur"/>
      <feComposite in="SourceGraphic"/>
    </filter>
  </defs>
  <g transform="matrix(1, 0, 0, 1, 0, 0)" filter="url(#Caminho_105110)">
    <path id="Caminho_105110-2" data-name="Caminho 105110" d="M114.847,184.932q-6.1,38.177-19.348,62.46-2.727,5.064-4.285,5.064-1.688,0-5.324-4.026A63.1,63.1,0,0,0,69.4,235.186q15.583-22.595,21.3-60.9,5.324-35.84,5.324-92.717L95.5,26.378q0-2.078.519-2.467a4.472,4.472,0,0,1,2.337-.39l35.191.519h65.967l34.8-.519q2.337,0,2.857.519a4.472,4.472,0,0,1,.39,2.337l-.649,18.959V68.971l.649,19.089q0,2.208-.649,2.6a5.238,5.238,0,0,1-2.6.39l-34.8-.519H121.6v.519Q121.6,147.4,114.847,184.932ZM210.94,68.451V46.636H121.6V68.451Zm21.166,65.187a10.735,10.735,0,0,1,1.428-.13q1.558,0,1.818,2.727l1.3,16.492a10.54,10.54,0,0,1,.13,1.3q0,1.948-2.727,2.208-.26,0-4.545.26-10.648.909-26.1,2.6l-19.089,2.467v17.011l24.413-2.987q14.024-1.3,24.413-2.727.26-.13,5.714-.909a15.625,15.625,0,0,1,2.337-.26,7.968,7.968,0,0,1,1.039-.13q1.3,0,1.558,2.727l1.428,16.751q0,.779,0,1.3,0,1.948-2.467,2.208-17.92,1.558-32.983,3.376L184.32,200.9v18.829q0,7.012,2.857,8.83,2.467,1.818,14.414,1.818,13.635,0,17.79-4.545,3.766-4.545,4.545-22.855a71.956,71.956,0,0,0,16.492,8.311q4.285,1.3,5.194,2.078a3.372,3.372,0,0,1,1.039,2.857q0,.909-.39,4.026-2.6,19.868-11.168,26.88a30.777,30.777,0,0,1-13.5,5.584q-7.012,1.3-20.517,1.3-26.62,0-34.282-4.8-8.051-5.584-8.051-20.128V203.5H157.7q-13.5,1.688-24.413,3.246-7.272,1.039-8.051,1.169h-1.3q-1.688,0-1.948-3.117l-1.818-16.622a10.542,10.542,0,0,1-.13-1.3q0-1.688,2.727-1.948.13,0,4.675-.39,11.427-.779,28.049-2.857l3.246-.26V164.414q-12.336,1.428-21.556,2.6-6.623.909-7.142.909a10.541,10.541,0,0,1-1.3.13q-1.688,0-1.948-2.857l-1.3-17.011a7.967,7.967,0,0,1-.13-1.039q0-1.558,2.727-1.818,27.14-2.337,30.646-2.727V128.055l-17.011,2.337a42.588,42.588,0,0,1-4.545.649q-2.727,0-5.324-6.493A61.422,61.422,0,0,0,124.2,111.3,429.8,429.8,0,0,0,198.6,97.409a50.747,50.747,0,0,0,12.466-5.064,95.205,95.205,0,0,1,15.842,14.933q1.818,2.337,1.818,3.766,0,2.857-4.285,2.857a30.826,30.826,0,0,0-8.7,1.428q-17.141,4.8-31.425,7.921v16.492l18.05-2.208q12.986-1.428,22.465-2.857Q231.977,133.639,232.107,133.639ZM17.586,192.983q-2.6,4.155-3.766,4.155-1.3,0-2.857-4.285-4.8-13.115-9.35-19.608,26.231-35.97,36.749-83.237H34.856l-23.893.519q-2.337,0-2.857-.519a4.472,4.472,0,0,1-.39-2.337v-18.7q0-2.208.649-2.727a5.238,5.238,0,0,1,2.6-.39l23.893.519H39.4V48.843q0-23.5-2.208-35.71a256.856,256.856,0,0,1,25.841,1.818q4.285.909,4.285,2.987a13.367,13.367,0,0,1-1.558,5.584q-1.688,3.766-1.688,24.932v17.92l21.037-.519a4.109,4.109,0,0,1,2.6.519,5.238,5.238,0,0,1,.39,2.6v18.7q0,2.078-.649,2.467a4.057,4.057,0,0,1-2.337.39q-.39,0-2.727-.13-7.921-.26-17.79-.39,10,28.438,26.1,49.735a71.448,71.448,0,0,0-8.181,16.492q-1.688,4.545-2.987,4.545-1.558,0-3.506-4.285a170.952,170.952,0,0,1-12.726-31.165q.13,44.54,1.169,92.847.13,10.908.519,27.01.13,7.4.13,8.311,0,2.208-.519,2.6a4.472,4.472,0,0,1-2.337.39H41.219q-2.078,0-2.467-.519a4.847,4.847,0,0,1-.39-2.467q0-.39.39-17.79.909-51.423,1.169-96.223Q31.48,170.777,17.586,192.983ZM343.632,49.752V84.943q0,59.6-7.921,97.521a243.072,243.072,0,0,1-22.335,62.2q-2.987,5.324-4.285,5.324-1.169,0-4.8-4.545a73.186,73.186,0,0,0-16.751-14.8q14.284-23.764,21.816-58.305,6.623-31.165,6.623-87.652l-.519-56.357q0-2.337.649-2.857a5.238,5.238,0,0,1,2.6-.39l35.58.519H490.758l35.321-.519q2.208,0,2.6.649a5.238,5.238,0,0,1,.39,2.6V47.415q0,2.078-.519,2.467a4.847,4.847,0,0,1-2.467.39l-35.58-.519H447.906a210.64,210.64,0,0,1-8.83,22.984H469.2l35.061-.519q2.337,0,2.857.519a3.716,3.716,0,0,1,.39,2.208l-.519,25.711V142.6l.519,25.192q0,2.078-.519,2.532a4.936,4.936,0,0,1-2.727.454l-35.061-.519h-20v22.075l.779,33.243q0,9.609-2.208,14.674a19.733,19.733,0,0,1-6.623,8.181,28.9,28.9,0,0,1-12.466,5.194q-7.661,1.428-23.634,1.428-6.493,0-7.661-1.169-1.039-1.169-2.208-7.4-3.246-12.336-6.882-18.31a225.826,225.826,0,0,0,23.114,1.558q10.648,0,10.648-10V170.258H401.028l-34.931.519q-2.208,0-2.6-.519a4.847,4.847,0,0,1-.39-2.467l.519-25.192V100.655l-.519-25.711q0-2.727,2.987-2.727l34.931.519h9.609a193.412,193.412,0,0,0,7.921-22.984ZM480.11,149.741v-18.31H389.86v18.31ZM389.86,93.254v17.4h90.25v-17.4Zm-56.1,137.387q22.335-17.271,33.762-37.009A65.532,65.532,0,0,0,374.8,177.4a113.3,113.3,0,0,1,22.855,9.35q4.285,2.337,4.285,4.026,0,1.818-2.857,4.285a33.243,33.243,0,0,0-5.454,7.661,172.682,172.682,0,0,1-32.724,40.9q-4.675,4.285-5.844,4.285-1.428,0-5.843-4.8A50.079,50.079,0,0,0,333.763,230.641ZM534,225.317a90.465,90.465,0,0,0-14.8,15.972q-3.376,4.8-5.324,4.8-1.818,0-5.584-3.506a168.831,168.831,0,0,1-40.515-49.994,5.03,5.03,0,0,1-.649-2.078q0-1.428,3.376-2.987l16.232-7.921a8.931,8.931,0,0,1,2.727-.779q1.169,0,2.337,2.078A136.784,136.784,0,0,0,534,225.317Z" transform="translate(146.89 135.37)" fill="#febf66"/>
  </g>
</svg>
