<svg xmlns="http://www.w3.org/2000/svg" xmlns:xlink="http://www.w3.org/1999/xlink" width="831.539" height="542.387" viewBox="0 0 831.539 542.387">
  <defs>
    <filter id="Caminho_105111" x="0" y="0" width="831.539" height="542.387" filterUnits="userSpaceOnUse">
      <feOffset input="SourceAlpha"/>
      <feGaussianBlur stdDeviation="49.5" result="blur"/>
      <feFlood flood-color="#00c977"/>
      <feComposite operator="in" in2="blur"/>
      <feComposite in="SourceGraphic"/>
    </filter>
  </defs>
  <g transform="matrix(1, 0, 0, 1, 0, 0)" filter="url(#Caminho_105111)">
    <path id="Caminho_105111-2" data-name="Caminho 105111" d="M175.652,228.519q12.51.782,21.763.782,9.383,0,9.383-8.471V172.744H162.751q-3.519,29.061-12.38,48.608a127.472,127.472,0,0,1-20.981,31.667q-4.431,4.822-5.864,4.822-1.564,0-5.864-4.3a58.674,58.674,0,0,0-16.29-11.468q16.29-16.29,23.848-31.146,8.34-16.029,11.468-40.007,2.867-22.154,2.867-63.595V68.751l-.521-41.05q0-2.215.521-2.606A4.489,4.489,0,0,1,141.9,24.7l27.888.521h32.97l27.757-.521a4.124,4.124,0,0,1,2.606.521,4.865,4.865,0,0,1,.391,2.476l-.521,41.05V190.336l.521,36.88q0,15.247-7.428,21.633a26.341,26.341,0,0,1-11.989,5.473q-7.3,1.433-21.111,1.433-6.516,0-7.689-1.173-1.043-1.043-2.215-6.776A66.088,66.088,0,0,0,175.652,228.519Zm-10.947-79.754H206.8V110.843h-41.05Q165.748,126.351,164.705,148.765ZM206.8,49.985h-41.05v36.88H206.8ZM37.125,195.81h16.29V176.393H45.856l-27.888.521q-3,0-3-2.737l.521-24.76V110.583l-.521-24.5q0-2.215.521-2.606a4.864,4.864,0,0,1,2.476-.391l27.627.521h7.819V64.45H39.471l-31.406.521q-2.346,0-2.867-.521a4.864,4.864,0,0,1-.391-2.476V44.9q0-2.085.652-2.476a5.257,5.257,0,0,1,2.606-.391l31.406.521H53.415a231.035,231.035,0,0,0-1.694-29.321A246.307,246.307,0,0,1,78.436,15.06q3.779.782,3.779,3a13.841,13.841,0,0,1-1.3,4.431q-1.694,3.258-1.694,15.247v4.822H92.38l31.406-.521q2.346,0,2.867.521a4.488,4.488,0,0,1,.391,2.346V61.974q0,2.215-.652,2.606a5.257,5.257,0,0,1-2.606.391L92.38,64.45H79.218V83.607h6.776l27.888-.521q2.215,0,2.606.521a4.864,4.864,0,0,1,.391,2.476l-.521,24.5v38.834l.521,24.76q0,2.737-3,2.737l-27.888-.521H79.218V195.81h6.516l31.667-.521a4.124,4.124,0,0,1,2.606.521,4.864,4.864,0,0,1,.391,2.476v17.072a4.6,4.6,0,0,1-.456,2.606q-.456.521-2.541.521l-31.667-.521H79.218v.521l.521,37.14q0,2.867-2.606,2.867H56.021q-2.215,0-2.737-.521a4.072,4.072,0,0,1-.391-2.346l.521-37.662H37.125l-31.8.521q-2.085,0-2.476-.521a5.743,5.743,0,0,1-.391-2.606V198.286q0-2.215.521-2.606a4.488,4.488,0,0,1,2.346-.391ZM92.64,156.063v-16.29H39.471v16.29ZM39.471,103.936v16.29H92.64v-16.29Zm293.192,52.518-34.013.521q-2.085,0-2.476-.652a4.864,4.864,0,0,1-.391-2.476V134.3q0-2.085.521-2.476a4.489,4.489,0,0,1,2.346-.391l34.013.521h63.986V74.745H347.519l-35.707.521a4.124,4.124,0,0,1-2.606-.521,4.488,4.488,0,0,1-.391-2.346V52.591q0-2.085.652-2.476a4.072,4.072,0,0,1,2.346-.391l35.707.521h49.129v-5.6a224.983,224.983,0,0,0-1.824-31.537q16.42.521,28.8,1.955,3.779.261,3.779,2.606,0,.391-1.694,7.428-1.3,5.734-1.3,19.287v5.864h53.169l35.707-.521q2.346,0,2.737.521a3.546,3.546,0,0,1,.521,2.346V72.4q0,2.085-.652,2.476a5.257,5.257,0,0,1-2.606.391l-35.707-.521H424.406v57.209h16.811q11.989-20.59,17.593-36.358a72.479,72.479,0,0,0,4.3-14.2,222.794,222.794,0,0,1,26.976,6.776q4.3,1.434,4.3,4.17a3.757,3.757,0,0,1-2.476,3.519q-2.215,1.433-6.646,9.643-9.513,16.55-16.029,26.454h22.936l33.882-.521a4.124,4.124,0,0,1,2.606.521,4.489,4.489,0,0,1,.391,2.346v19.548a4.6,4.6,0,0,1-.456,2.606q-.456.521-2.541.521l-33.882-.521H441.217Q475.1,194.9,537,220.831q-7.428,7.037-13.814,19.417-3,6.646-4.822,6.646-.782,0-6.125-2.606-56.949-29.191-88.616-75.323.261,18.244.912,56.818.391,24.109.391,29.191,0,2.085-.521,2.476a4.488,4.488,0,0,1-2.346.391H398.734q-2.085,0-2.476-.521a4.488,4.488,0,0,1-.391-2.346q0-3,.652-35.055.521-28.67.652-49.26-29.843,43.4-83.273,72.847-5.343,2.606-6.386,2.606-1.694,0-5.082-6.386a71.182,71.182,0,0,0-12.51-17.593q58.773-26.585,88.876-65.68ZM355.86,84a220.925,220.925,0,0,1,16.811,32.71,6.251,6.251,0,0,1,.391,1.824q0,1.433-3.128,2.476l-19.157,7.3a10.138,10.138,0,0,1-2.867.782q-1.3,0-2.215-2.346-7.3-19.808-16.029-32.97a4.711,4.711,0,0,1-.912-2.215q0-1.3,3.128-2.215l18.635-6.776a9.1,9.1,0,0,1,2.737-.652Q354.556,81.913,355.86,84Z" transform="translate(146.04 135.39)" fill="#00c977"/>
  </g>
</svg>
