<svg xmlns="http://www.w3.org/2000/svg" width="101.208" height="35.182" viewBox="0 0 101.208 35.182">
  <g id="Grupo_16718" data-name="Grupo 16718" transform="translate(-2599.15 -733.128)">
    <g id="Grupo_16717" data-name="Grupo 16717" transform="translate(2599.15 733.128)">
      <path id="Caminho_105120" data-name="Caminho 105120" d="M2602.639,737.566l.261.214a1.209,1.209,0,0,1-.775-.058c2.8,1.835,6.912,1.535,9.632.515.916.161,1.786-.148,1.941-.692s-.463-1.116-1.38-1.277a2.761,2.761,0,0,1-.562-.279,15.658,15.658,0,0,0-4.44-2.515l.97.625a6.574,6.574,0,0,0-1.545-.5l.153.332a5.759,5.759,0,0,0-5.466-.215c-1.383.87-1.185,2.379.477,3.378Z" transform="translate(-2598.728 -733.128)"/>
      <path id="Caminho_105121" data-name="Caminho 105121" d="M2605.7,740.293c-1.021-.513-1.99-1.064-2.958-1.614l-.174-.219-.059.86.029-.051a9.8,9.8,0,0,1,4.182-.62l.537-.054a.8.8,0,0,0,.531-.393c.177-.392-.224-.838-.893-1l-.771-.18c-1.831-.764-4.806-1.24-6.093.039-.291.3-.148.75-.157,1.146-.16.549.483,1.148,1.433,1.332s1.838-.117,1.986-.674l.472.191-.413.145c.342-.451,1.228-.43,1.913-.594l.99,0-.362-1.389-.527.1c.03.062.092.156.085.16a20.8,20.8,0,0,1-3.049.513l-1.4.281c-.4.2-.421.573-.063.861l.545.372-.24-.208c1.311.5,2.717.893,4.018,1.409a.61.61,0,0,0,.6-.043C2605.983,740.546,2605.912,740.381,2605.7,740.293Z" transform="translate(-2598.933 -732.152)"/>
      <g id="Grupo_16716" data-name="Grupo 16716" transform="translate(0 2.819)">
        <path id="Caminho_105122" data-name="Caminho 105122" d="M2600.839,739a1.415,1.415,0,0,0-.717-.295l-.149.085.395.29C2600.652,739.285,2600.83,739.184,2600.839,739Z" transform="translate(-2598.895 -734.214)"/>
        <path id="Caminho_105123" data-name="Caminho 105123" d="M2600.012,738.8l-.165-.122.1.142.036-.005Z" transform="translate(-2598.934 -734.223)"/>
        <path id="Caminho_105124" data-name="Caminho 105124" d="M2645.631,740.736c4.222.332,8.473.5,12.723.551.142,0,.261-.059.266-.144s-.107-.144-.239-.142c-4.248-.063-8.474-.235-12.694-.564-.142-.005-.26.052-.28.131S2645.5,740.724,2645.631,740.736Z" transform="translate(-2584.771 -733.675)"/>
        <path id="Caminho_105125" data-name="Caminho 105125" d="M2670.14,746.253c-.1.069-.088.155.022.207a.394.394,0,0,0,.355-.026.114.114,0,0,0-.022-.206A.394.394,0,0,0,2670.14,746.253Z" transform="translate(-2577.104 -731.885)"/>
        <path id="Caminho_105126" data-name="Caminho 105126" d="M2691.672,756.152a8.633,8.633,0,0,0-1.684.586.431.431,0,0,1-.288.012c.045.131-.065.258-.284.328a93.23,93.23,0,0,1-13.624,2.715.7.7,0,0,1-.189.317,2.065,2.065,0,0,1-1.628.48l-.508-.073c-2.049-.165-4.09-.256-6.123-.465a5.07,5.07,0,0,1-1.421.287c-1.756.408-3.524.83-5.334,1.093a.422.422,0,0,1,.18.324c-.038.287-.459.494-.948.477l-.741.008,2.122.25a1.225,1.225,0,0,1,.282.052c.777.025,1.563.008,2.361-.017a98.683,98.683,0,0,0,19.9-3.023.415.415,0,0,1,.367.013c.066.065.059.16-.058.2-2,.826-3.875,1.715-5.827,2.544a33.355,33.355,0,0,1-6.3,2.1,152.008,152.008,0,0,1-16.74,2.776c-5.968-.164-11.519.354-17.648.467a183.084,183.084,0,0,1-24.125-1.252c-3.04-.127-5.647-1.65-5.812-3.382-.092-1.046.708-1.91,2.012-2.405l-.722-.114-1.121-.355a5.1,5.1,0,0,1-2.433-1.534l-.7-.81c-.88-1.467-2.43-2.841-3.084-4.365l.27-.494-.18-.183a2.6,2.6,0,0,1-1.064-1.614l.16-.624a4.573,4.573,0,0,1,1.313-1.9,1.414,1.414,0,0,1,.3-.755,1.987,1.987,0,0,1,0-2.131c-.244-.228-.157-.5.19-.609a1.125,1.125,0,0,1,.4-.039l0,0a4.524,4.524,0,0,0-.336-.457l-.41-.161-1.3-.422a3.139,3.139,0,0,1-.781-.663c-.414-1.223-.413-1.223-.246-1.7a1.35,1.35,0,0,1,.136-.122l-.6-.321a1.25,1.25,0,0,1-.194-.223c.021-.266.021-.266-.044-.372a.759.759,0,0,1,.011-.2c.308-.253.308-.253.329-.334a.94.94,0,0,1,.169-.122l.5-.065c.552.779.554.781.554.781l.178-.214.106.337-.043-.3.307.224-.342-.308a4.94,4.94,0,0,0,1.088.26,2.093,2.093,0,0,0,.647.056.634.634,0,0,1-.007-.157l1.628.484a1.861,1.861,0,0,1,.165.218.5.5,0,0,1,.413-.041l.424.115.1-.026v-.022l.384-.085.08-.022,0,0,1.656-.371c.25.07.481.148.7.232l-.191-.157c-.122-.11.035-.346-.034-.379a49.537,49.537,0,0,0-5.524-1.859c-.349-.021-.649-.219-.668-.431s.261-.366.617-.339a23.988,23.988,0,0,1,12.693,1.625l3.142.735-.138-.147.806.284.088.018-.575-.528-.418-.185a57.053,57.053,0,0,1-6.911-2.231c-1.243-.421-2.277-1.008-3.433-1.5-.307-.067-.5-.261-.434-.444s.367-.265.666-.2c4.046.239,8.57,1.083,11.626,3.018a4.893,4.893,0,0,1,1.991.636l.033.009-.414-.435c.541.153.8.5,1.291.691l-.132-.547c2.685.633,5.643.709,8.1,1.707.1.02.194.047.287.073a12.12,12.12,0,0,1,3.538-.516l-1.286-.265a10.82,10.82,0,0,1,2.889-.146c2.7.248,5.69,1.213,7.06,2.691,5.294.085,10.594.157,15.872-.127.273-.021.515.1.562.253.026.155-.156.3-.428.322a104.7,104.7,0,0,1-11.517.773c3.21.419,6.449.751,9.757.874l1.273-.051a5.98,5.98,0,0,1,1.251.1,97.567,97.567,0,0,0,12.55-.342c3.674-.4,6.879-.877,10.51-1.519,5.1-.92,9.705-1.9,14.743-2.31.666-.1,1.311.14,1.424.536s-.344.8-1.015.9c-10.436,2.078-20.843,4.071-31.986,3.9l-3.557-.064a.583.583,0,0,1,.028.162.8.8,0,0,1-.3.591q2.006.079,4.036.25c1.88-.223,3.757-.486,5.663-.665a53.583,53.583,0,0,1,5.849-.225c2.752.1,5.258.455,7.826.764,3.214-.4,6.4-.932,9.636-1.375a.3.3,0,0,1,.317.065c.052.075-.012.157-.142.2-2.2.683-4.469,1.168-6.768,1.66a1.057,1.057,0,0,1,.608.9,1.251,1.251,0,0,1-.693.977l1.586-.072c.326-.007.593.119.594.3.005.2-.245.358-.557.372-2.159.127-4.317.189-6.473.262-2.577.345-5.154.57-7.747.81a1.9,1.9,0,0,1,.777.856v.005l1.2-.066a199.078,199.078,0,0,1,22.314-2.687c.148-.014.276.043.286.13s-.1.164-.232.168c-2.283.111-4.554.312-6.815.536l.009,0c.1.045.119.139.022.206a.426.426,0,0,1-.355.028c-.109-.052-.1-.146-.024-.2-4.213.422-8.392.994-12.527,1.674,3.857-.244,7.711-.48,11.57-.575l1.244-.393a.341.341,0,0,1,.323.089c.037.067-.042.159-.16.185l-.349.1c.731-.009,1.319.305,1.338.741-.008.455-.614.84-1.375.87-2.031.207-4.056.4-6.085.522l-.656.109-.652.242,9.488.041c.269-.025.509.084.526.24s-.191.3-.462.328a165.124,165.124,0,0,1-16.737,2.211c-1.834.734-3.682,1.485-5.575,2.176l.726.008c6.188-.146,11.344-2.266,17.249-3.039a.258.258,0,0,1,.3.107c.021.076-.076.161-.227.172-2.883.463-5.5,1.226-8.373,1.825-2.378.493-4.647.9-6.866,1.484,4.563-.311,8.9-1.323,13.377-1.952a.742.742,0,0,1,.526.051.183.183,0,0,1,.1-.117,11.882,11.882,0,0,1,1.771-.611.326.326,0,0,1,.34.062C2691.87,756.016,2691.8,756.1,2691.672,756.152Zm-77.9-11.427-.1-.1.368.2.464.7Zm-7.08,1.442h0l-.263-.4Zm43.784-1.813a38.988,38.988,0,0,1-6.885-.844l1.682-.031C2647,743.735,2648.734,744.055,2650.478,744.354Zm-40.924-2.588a7.52,7.52,0,0,1,1.379,1.357,6.269,6.269,0,0,1,1.254.073c1.134.181,2.235.4,3.317.646-.116-.24.143-.182.281-.193l.417,0-3.462-.944A32.42,32.42,0,0,1,2609.554,741.767Zm-8.233-.307-.086-.1.268-.3Zm-.428.51.16.071C2600.973,742.155,2600.926,742.1,2600.892,741.97Zm1.467.649a.949.949,0,0,0-.19-.212Zm-.346,9.915.851-1.566-.9,1.492Z" transform="translate(-2599.15 -735.279)"/>
      </g>
    </g>
  </g>
</svg>
