<svg xmlns="http://www.w3.org/2000/svg" xmlns:xlink="http://www.w3.org/1999/xlink" width="832" height="543.457" viewBox="0 0 832 543.457">
  <defs>
    <filter id="Caminho_105108" x="0" y="0" width="832" height="543.457" filterUnits="userSpaceOnUse">
      <feOffset input="SourceAlpha"/>
      <feGaussianBlur stdDeviation="49.5" result="blur"/>
      <feFlood flood-color="#ff5050" flood-opacity="0.502"/>
      <feComposite operator="in" in2="blur"/>
      <feComposite in="SourceGraphic"/>
    </filter>
  </defs>
  <g transform="matrix(1, 0, 0, 1, 0, 0)" filter="url(#Caminho_105108)">
    <path id="Caminho_105108-2" data-name="Caminho 105108" d="M111.316,45.488l-38.341.538a8.787,8.787,0,0,1-2.556-.269L56.966,63.918q-2.018,2.556-2.825,2.556a6.622,6.622,0,0,1-2.422-1.345q-18.43-19.372-36.861-30-1.883-1.076-1.883-1.883,0-.942,1.749-3.094L27.235,16.026q1.749-2.018,2.96-2.018a6.107,6.107,0,0,1,2.287.673Q50.643,24.9,69.881,42.528V22.887q0-2.152.538-2.556a5.022,5.022,0,0,1,2.556-.4l38.341.538H211.809l38.341-.538q2.691,0,2.691,2.96V43.066q0,2.96-2.691,2.96l-38.341-.538H192.167V73.6h8.475l37.534-.538q2.422,0,2.96.538a5.021,5.021,0,0,1,.4,2.556L241,129.568V180.42l.538,76.412q0,2.153-.673,2.691a5.022,5.022,0,0,1-2.556.4H217.593q-2.287,0-2.691-.673a4.2,4.2,0,0,1-.4-2.422V244.725H107.683V257.64q0,2.018-.673,2.422a5.427,5.427,0,0,1-2.691.4H84.006q-2.422,0-2.96-.538a4.263,4.263,0,0,1-.4-2.287l.538-76.951V135.622L80.643,76.16q0-2.287.673-2.691a5.427,5.427,0,0,1,2.691-.4l37.13.538h5.516V45.488Zm35.919,84.619q-5.112,20.987-15.605,34.3-3.767,4.978-5.516,4.978-1.614,0-6.323-4.709a64.113,64.113,0,0,0-12.108-9.013v23.677H214.5V156.2q-6.592.538-20.448.538-15.605,0-20.583-4.17-5.785-4.439-5.785-16.413V97.55H151.136A155.672,155.672,0,0,1,147.235,130.106Zm-39.552,90.672H214.5V202.752H107.683ZM214.5,97.55H191.9V121.5q0,7.4,1.614,9.417,1.749,2.152,8.61,2.152,7.668,0,12.377-.269Zm-106.816,0v55.426q11.435-13.722,15.336-27.578,2.691-8.879,3.632-27.847ZM151.136,73.6h16.547V45.488H151.136ZM3.962,244.187a139.659,139.659,0,0,0,12.108-21.256A414.663,414.663,0,0,0,39.881,155.4a86.8,86.8,0,0,0,15.336,12.915q6.592,4.439,6.592,7a31.427,31.427,0,0,1-1.345,6.323Q53.2,210.824,38.4,244.59q-3.632,8.879-3.767,11.031-.538,4.17-3.094,4.17a11.257,11.257,0,0,1-5.247-1.614A187.474,187.474,0,0,1,3.962,244.187ZM21.316,83.828q23.677,13.991,38.879,27.847A2.847,2.847,0,0,1,61.54,114.1a5.349,5.349,0,0,1-1.345,3.094L47.818,133.6q-2.018,2.825-3.094,2.825a6.622,6.622,0,0,1-2.422-1.345A193.753,193.753,0,0,0,3.962,104.949q-1.883-1.076-1.883-2.152,0-.942,1.614-2.96L15.8,85.174q1.749-2.152,3.094-2.152A5.425,5.425,0,0,1,21.316,83.828Zm322.713,172.2H320.217a2.248,2.248,0,0,1-2.96-2.96l.538-98.072v-53l-.538-72.242q0-2.152.538-2.556a5.022,5.022,0,0,1,2.556-.4l37.4.538H496.585l37.534-.538q2.152,0,2.556.538a4.633,4.633,0,0,1,.4,2.422l-.538,64.036v61.211l.538,97.8q0,2.152-.538,2.556a4.633,4.633,0,0,1-2.422.4H510.441q-2.287,0-2.691-.538a4.633,4.633,0,0,1-.4-2.422v-15.2H346.989v15.471q0,2.152-.538,2.556A4.633,4.633,0,0,1,344.029,256.025Zm96.054-44.664h67.264V144.5H440.083Zm67.264-157.8H440.083v64.977h67.264Zm-160.358,157.8H411.7V144.5H346.989Zm0-157.8v64.977H411.7V53.559Z" transform="translate(146.42 134.49)" fill="#ff5050"/>
  </g>
</svg>
